<svg xmlns="http://www.w3.org/2000/svg" width="798" height="102" viewBox="0 0 798 102">
    <defs>
        <path id="a" d="M.5 0h798v101H.5z"/>
    </defs>
    <g fill="none" fill-rule="evenodd">
        <path fill="#424B5D" fill-rule="nonzero" d="M181.984 85.191L133.793 37h-95.5l-66.147-66.146.708-.708L38.707 36h95.5l48.484 48.484a4.5 4.5 0 1 1-.707.707zM820.484 153.191L772.293 105h-95.5l-66.147-66.146.708-.708L677.207 104h95.5l48.484 48.484a4.5 4.5 0 1 1-.707.707z"/>
        <path fill="#424B5D" fill-rule="nonzero" d="M182.984 61.691L134.793 13.5h-95.5l-66.147-66.146.708-.708L39.707 12.5h95.5l48.484 48.484a4.5 4.5 0 1 1-.707.707zM821.484 129.691L773.293 81.5h-95.5l-66.147-66.146.708-.708L678.207 80.5h95.5l48.484 48.484a4.5 4.5 0 1 1-.707.707z"/>
    </g>
</svg>
