<svg xmlns="http://www.w3.org/2000/svg" xmlns:xlink="http://www.w3.org/1999/xlink" width="172" height="128" viewBox="0 0 172 128">
    <defs>
        <path id="a" d="M56 112C25.072 112 0 86.928 0 56S25.072 0 56 0s56 25.072 56 56-25.072 56-56 56z"/>
        <path id="c" d="M-3.597 8.43H24.33v13.846H-3.597z"/>
        <path id="e" d="M20.114 27.336h5.158v4.682h-5.158z"/>
        <path id="g" d="M-14.597 7.43H13.33v13.846h-27.927z"/>
        <path id="i" d="M9.114 26.336h5.158v4.682H9.114z"/>
        <path id="k" d="M-12.597 20.43H15.33v13.846h-27.927z"/>
        <path id="m" d="M11.114 39.336h5.158v4.682h-5.158z"/>
        <path id="o" d="M-3.597 8.43H24.33v13.846H-3.597z"/>
        <path id="q" d="M20.114 27.336h5.158v4.682h-5.158z"/>
        <path id="s" d="M-14.597 7.43H13.33v13.846h-27.927z"/>
        <path id="u" d="M9.114 26.336h5.158v4.682H9.114z"/>
        <path id="w" d="M-12.597 20.43H15.33v13.846h-27.927z"/>
        <path id="y" d="M11.114 39.336h5.158v4.682h-5.158z"/>
    </defs>
    <g fill="none" fill-rule="evenodd">
        <path fill="#F9F9F9" d="M142 70c0 30.928-25.072 56-56 56s-56-25.072-56-56 25.072-56 56-56 56 25.072 56 56"/>
        <g transform="translate(30 14)">
            <mask id="b" fill="#fff">
                <use xlink:href="#a"/>
            </mask>
            <use fill="#F9F9F9" xlink:href="#a"/>
            <g mask="url(#b)">
                <g transform="translate(108 48)">
                    <mask id="d" fill="#fff">
                        <use xlink:href="#c"/>
                    </mask>
                    <path fill="#81EBF7" d="M-2.837 22.224a.532.532 0 1 0-.457-.96.532.532 0 0 0 .457.96m1.918-.913a.53.53 0 1 0-.455-.96.53.53 0 0 0 .455.96m1.92-.913a.53.53 0 1 0-.456-.96.53.53 0 0 0 .455.96m1.92-.913a.532.532 0 1 0-.458-.96.532.532 0 0 0 .457.96m1.919-.913a.53.53 0 1 0-.456-.96.53.53 0 0 0 .456.96m1.919-.913a.53.53 0 1 0-.455-.959.53.53 0 0 0 .455.959m1.919-.914a.531.531 0 1 0-.457-.959.531.531 0 0 0 .457.96m1.919-.913a.53.53 0 1 0-.456-.959.53.53 0 0 0 .456.959m1.919-.914a.53.53 0 1 0-.456-.958.53.53 0 0 0 .456.958m1.918-.913a.531.531 0 1 0-.457-.96.531.531 0 0 0 .457.96m1.92-.913a.53.53 0 1 0-.456-.959.53.53 0 0 0 .455.96m1.919-.913a.532.532 0 1 0-.457-.96.532.532 0 0 0 .457.96m1.919-.913a.532.532 0 1 0-.458-.96.532.532 0 0 0 .458.96m1.919-.914a.53.53 0 1 0-.456-.959.53.53 0 0 0 .456.96m1.918-.914a.532.532 0 1 0-.456-.96.532.532 0 0 0 .456.96" mask="url(#d)" transform="rotate(75 10.366 15.353)"/>
                    <mask id="f" fill="#fff">
                        <use xlink:href="#e"/>
                    </mask>
                    <path fill="#81EBF7" d="M23.466 30.997a.532.532 0 1 0 .542.914.532.532 0 0 0-.542-.914m-1.503.023a.53.53 0 1 0-.513.929.53.53 0 0 0 .513-.929m-.785-1.283a.532.532 0 1 0-1.063.032.532.532 0 0 0 1.063-.032m.705-1.33a.531.531 0 1 0-.57-.896.531.531 0 0 0 .57.897m1.501-.07a.53.53 0 1 0 .485-.944.53.53 0 0 0-.485.944m.825 1.258a.531.531 0 1 0 1.06-.064.531.531 0 0 0-1.06.064" mask="url(#f)" transform="rotate(75 22.693 29.675)"/>
                    <mask id="h" fill="#fff">
                        <use xlink:href="#g"/>
                    </mask>
                    <path fill="#81EBF7" d="M-13.837 21.224a.532.532 0 1 0-.457-.96.532.532 0 0 0 .457.96m1.918-.913a.53.53 0 1 0-.455-.96.53.53 0 0 0 .455.96m1.92-.913a.53.53 0 1 0-.456-.96.53.53 0 0 0 .455.96m1.92-.913a.532.532 0 1 0-.458-.96.532.532 0 0 0 .457.96m1.919-.913a.53.53 0 1 0-.456-.96.53.53 0 0 0 .456.96m1.919-.913a.53.53 0 1 0-.455-.959.53.53 0 0 0 .455.959m1.919-.914a.531.531 0 1 0-.457-.959.531.531 0 0 0 .457.96m1.919-.913a.53.53 0 1 0-.456-.959.53.53 0 0 0 .456.959m1.919-.914a.53.53 0 1 0-.456-.958.53.53 0 0 0 .456.958m1.918-.913a.531.531 0 1 0-.457-.96.531.531 0 0 0 .457.96m1.92-.913a.53.53 0 1 0-.456-.959.53.53 0 0 0 .455.96m1.919-.913a.532.532 0 1 0-.457-.96.532.532 0 0 0 .457.96m1.919-.913a.532.532 0 1 0-.458-.96.532.532 0 0 0 .458.96m1.919-.914a.53.53 0 1 0-.456-.959.53.53 0 0 0 .456.96m1.918-.914a.532.532 0 1 0-.456-.96.532.532 0 0 0 .456.96" mask="url(#h)" transform="rotate(75 -.634 14.353)"/>
                    <mask id="j" fill="#fff">
                        <use xlink:href="#i"/>
                    </mask>
                    <path fill="#81EBF7" d="M12.466 29.997a.532.532 0 1 0 .542.914.532.532 0 0 0-.542-.914m-1.503.023a.53.53 0 1 0-.513.929.53.53 0 0 0 .513-.929m-.785-1.283a.532.532 0 1 0-1.063.032.532.532 0 0 0 1.063-.032m.705-1.33a.531.531 0 1 0-.57-.896.531.531 0 0 0 .57.897m1.501-.07a.53.53 0 1 0 .485-.944.53.53 0 0 0-.485.944m.825 1.258a.531.531 0 1 0 1.06-.064.531.531 0 0 0-1.06.064" mask="url(#j)" transform="rotate(75 11.693 28.675)"/>
                    <mask id="l" fill="#fff">
                        <use xlink:href="#k"/>
                    </mask>
                    <path fill="#81EBF7" d="M-11.837 34.224a.532.532 0 1 0-.457-.96.532.532 0 0 0 .457.96m1.918-.913a.53.53 0 1 0-.455-.96.53.53 0 0 0 .455.96m1.92-.913a.53.53 0 1 0-.456-.96.53.53 0 0 0 .455.96m1.92-.913a.532.532 0 1 0-.458-.96.532.532 0 0 0 .457.96m1.919-.913a.53.53 0 1 0-.456-.96.53.53 0 0 0 .456.96m1.919-.913a.53.53 0 1 0-.455-.959.53.53 0 0 0 .455.959m1.919-.914a.531.531 0 1 0-.457-.959.531.531 0 0 0 .457.96m1.919-.913a.53.53 0 1 0-.456-.959.53.53 0 0 0 .456.959m1.919-.914a.53.53 0 1 0-.456-.958.53.53 0 0 0 .456.958m1.918-.913a.531.531 0 1 0-.457-.96.531.531 0 0 0 .457.96m1.92-.913a.53.53 0 1 0-.456-.959.53.53 0 0 0 .455.96m1.919-.913a.532.532 0 1 0-.457-.96.532.532 0 0 0 .457.96m1.919-.913a.532.532 0 1 0-.458-.96.532.532 0 0 0 .458.96m1.919-.914a.53.53 0 1 0-.456-.959.53.53 0 0 0 .456.96m1.918-.914a.532.532 0 1 0-.456-.96.532.532 0 0 0 .456.96" mask="url(#l)" transform="rotate(75 1.366 27.353)"/>
                    <mask id="n" fill="#fff">
                        <use xlink:href="#m"/>
                    </mask>
                    <path fill="#81EBF7" d="M14.466 42.997a.532.532 0 1 0 .542.914.532.532 0 0 0-.542-.914m-1.503.023a.53.53 0 1 0-.513.929.53.53 0 0 0 .513-.929m-.785-1.283a.532.532 0 1 0-1.063.032.532.532 0 0 0 1.063-.032m.705-1.33a.531.531 0 1 0-.57-.896.531.531 0 0 0 .57.897m1.501-.07a.53.53 0 1 0 .485-.944.53.53 0 0 0-.485.944m.825 1.258a.531.531 0 1 0 1.06-.064.531.531 0 0 0-1.06.064" mask="url(#n)" transform="rotate(75 13.693 41.675)"/>
                </g>
            </g>
            <path fill="#CCC8C8" fill-rule="nonzero" d="M9 79h52v3H9z" mask="url(#b)"/>
            <path fill="#CCC8C8" fill-rule="nonzero" d="M93 79h16v3H93zM93 85h16v3H93z" mask="url(#b)" transform="matrix(-1 0 0 1 202 0)"/>
            <g mask="url(#b)">
                <path fill="#CCC8C8" fill-rule="nonzero" d="M9 85h52v3H9z"/>
                <path fill="#A39D9D" d="M21.694 74l-3.916 3.299v12.032h7.832V77.299zM33.583 74l-3.916 3.299v12.032h7.832V77.299zM45.472 74l-3.916 3.299v12.032h7.832V77.299zM57.36 74l-3.916 3.299v12.032h7.832V77.299zM69.25 74l-3.917 3.299v12.032h7.832V77.299zM81.138 74l-3.916 3.299v12.032h7.832V77.299zM93.027 74l-3.916 3.299v12.032h7.832V77.299zM104.916 74L101 77.299v12.032h7.832V77.299z"/>
            </g>
        </g>
        <path fill="#CCC8C8" fill-rule="nonzero" d="M28 93h15v3H28zM28 99h15v3H28z"/>
        <path fill="#A39D9D" d="M27.916 88L24 91.299v12.032h7.832V91.299zM39.805 88l-3.916 3.299v12.032h7.832V91.299zM96.222 54.691l-3 48.64h23.832l-5-48.64z"/>
        <path fill="#ADBD8A" fill-rule="nonzero" d="M72.475 41.756C70.934 40.086 70 37.896 70 35.5c0-5.247 4.477-9.5 10-9.5.34 0 .676.016 1.008.048C81.264 18.8 87.654 13 95.5 13c8.008 0 14.5 6.044 14.5 13.5 0 1.406-.23 2.76-.659 4.035C115.452 34.327 114.838 57 107.5 57c-3.905 0-7.45-1.437-10.056-3.774a8.487 8.487 0 0 1-1.57 1.763c.083.492.126.997.126 1.511 0 5.247-4.477 9.5-10 9.5s-10-4.253-10-9.5c0-.552.05-1.094.145-1.62C71.175 53.138 68 50.48 68 47.5c0-2.158 1.667-4.148 4.475-5.744z"/>
        <path fill="#6A8A53" fill-rule="nonzero" d="M122.892 26.021c4.398.548 7.56 2.267 8.333 4.966.614 2.14-.371 4.552-2.52 6.853 3.123 1.49 5.295 4.808 5.295 8.66 0 4.53-3.005 8.321-7.026 9.27.017.241.026.485.026.73 0 5.247-4.03 9.5-9 9.5-2.84 0-5.373-1.389-7.022-3.558C107.826 63.427 104.054 64 100 64c-1.459 0-2.881-.074-4.25-.215C94.1 65.757 91.687 67 89 67c-4.97 0-9-4.253-9-9.5 0-.588.05-1.163.147-1.721C75.777 54.036 73 51.422 73 48.5c0-2.188 1.557-4.203 4.173-5.809C75.82 41.028 75 38.865 75 36.5c0-5.247 4.03-9.5 9-9.5.34 0 .676.02 1.007.059C85.23 19.807 90.962 14 98 14c4.434 0 8.35 2.305 10.696 5.824A8.649 8.649 0 0 1 114 18c4.494 0 8.219 3.477 8.892 8.021z"/>
        <g transform="translate(40 11)">
            <mask id="p" fill="#fff">
                <use xlink:href="#o"/>
            </mask>
            <path fill="#81EBF7" d="M-2.837 22.224a.532.532 0 1 0-.457-.96.532.532 0 0 0 .457.96m1.918-.913a.53.53 0 1 0-.455-.96.53.53 0 0 0 .455.96m1.92-.913a.53.53 0 1 0-.456-.96.53.53 0 0 0 .455.96m1.92-.913a.532.532 0 1 0-.458-.96.532.532 0 0 0 .457.96m1.919-.913a.53.53 0 1 0-.456-.96.53.53 0 0 0 .456.96m1.919-.913a.53.53 0 1 0-.455-.959.53.53 0 0 0 .455.959m1.919-.914a.531.531 0 1 0-.457-.959.531.531 0 0 0 .457.96m1.919-.913a.53.53 0 1 0-.456-.959.53.53 0 0 0 .456.959m1.919-.914a.53.53 0 1 0-.456-.958.53.53 0 0 0 .456.958m1.918-.913a.531.531 0 1 0-.457-.96.531.531 0 0 0 .457.96m1.92-.913a.53.53 0 1 0-.456-.959.53.53 0 0 0 .455.96m1.919-.913a.532.532 0 1 0-.457-.96.532.532 0 0 0 .457.96m1.919-.913a.532.532 0 1 0-.458-.96.532.532 0 0 0 .458.96m1.919-.914a.53.53 0 1 0-.456-.959.53.53 0 0 0 .456.96m1.918-.914a.532.532 0 1 0-.456-.96.532.532 0 0 0 .456.96" mask="url(#p)" transform="rotate(75 10.366 15.353)"/>
            <mask id="r" fill="#fff">
                <use xlink:href="#q"/>
            </mask>
            <path fill="#81EBF7" d="M23.466 30.997a.532.532 0 1 0 .542.914.532.532 0 0 0-.542-.914m-1.503.023a.53.53 0 1 0-.513.929.53.53 0 0 0 .513-.929m-.785-1.283a.532.532 0 1 0-1.063.032.532.532 0 0 0 1.063-.032m.705-1.33a.531.531 0 1 0-.57-.896.531.531 0 0 0 .57.897m1.501-.07a.53.53 0 1 0 .485-.944.53.53 0 0 0-.485.944m.825 1.258a.531.531 0 1 0 1.06-.064.531.531 0 0 0-1.06.064" mask="url(#r)" transform="rotate(75 22.693 29.675)"/>
            <mask id="t" fill="#fff">
                <use xlink:href="#s"/>
            </mask>
            <path fill="#81EBF7" d="M-13.837 21.224a.532.532 0 1 0-.457-.96.532.532 0 0 0 .457.96m1.918-.913a.53.53 0 1 0-.455-.96.53.53 0 0 0 .455.96m1.92-.913a.53.53 0 1 0-.456-.96.53.53 0 0 0 .455.96m1.92-.913a.532.532 0 1 0-.458-.96.532.532 0 0 0 .457.96m1.919-.913a.53.53 0 1 0-.456-.96.53.53 0 0 0 .456.96m1.919-.913a.53.53 0 1 0-.455-.959.53.53 0 0 0 .455.959m1.919-.914a.531.531 0 1 0-.457-.959.531.531 0 0 0 .457.96m1.919-.913a.53.53 0 1 0-.456-.959.53.53 0 0 0 .456.959m1.919-.914a.53.53 0 1 0-.456-.958.53.53 0 0 0 .456.958m1.918-.913a.531.531 0 1 0-.457-.96.531.531 0 0 0 .457.96m1.92-.913a.53.53 0 1 0-.456-.959.53.53 0 0 0 .455.96m1.919-.913a.532.532 0 1 0-.457-.96.532.532 0 0 0 .457.96m1.919-.913a.532.532 0 1 0-.458-.96.532.532 0 0 0 .458.96m1.919-.914a.53.53 0 1 0-.456-.959.53.53 0 0 0 .456.96m1.918-.914a.532.532 0 1 0-.456-.96.532.532 0 0 0 .456.96" mask="url(#t)" transform="rotate(75 -.634 14.353)"/>
            <mask id="v" fill="#fff">
                <use xlink:href="#u"/>
            </mask>
            <path fill="#81EBF7" d="M12.466 29.997a.532.532 0 1 0 .542.914.532.532 0 0 0-.542-.914m-1.503.023a.53.53 0 1 0-.513.929.53.53 0 0 0 .513-.929m-.785-1.283a.532.532 0 1 0-1.063.032.532.532 0 0 0 1.063-.032m.705-1.33a.531.531 0 1 0-.57-.896.531.531 0 0 0 .57.897m1.501-.07a.53.53 0 1 0 .485-.944.53.53 0 0 0-.485.944m.825 1.258a.531.531 0 1 0 1.06-.064.531.531 0 0 0-1.06.064" mask="url(#v)" transform="rotate(75 11.693 28.675)"/>
            <mask id="x" fill="#fff">
                <use xlink:href="#w"/>
            </mask>
            <path fill="#81EBF7" d="M-11.837 34.224a.532.532 0 1 0-.457-.96.532.532 0 0 0 .457.96m1.918-.913a.53.53 0 1 0-.455-.96.53.53 0 0 0 .455.96m1.92-.913a.53.53 0 1 0-.456-.96.53.53 0 0 0 .455.96m1.92-.913a.532.532 0 1 0-.458-.96.532.532 0 0 0 .457.96m1.919-.913a.53.53 0 1 0-.456-.96.53.53 0 0 0 .456.96m1.919-.913a.53.53 0 1 0-.455-.959.53.53 0 0 0 .455.959m1.919-.914a.531.531 0 1 0-.457-.959.531.531 0 0 0 .457.96m1.919-.913a.53.53 0 1 0-.456-.959.53.53 0 0 0 .456.959m1.919-.914a.53.53 0 1 0-.456-.958.53.53 0 0 0 .456.958m1.918-.913a.531.531 0 1 0-.457-.96.531.531 0 0 0 .457.96m1.92-.913a.53.53 0 1 0-.456-.959.53.53 0 0 0 .455.96m1.919-.913a.532.532 0 1 0-.457-.96.532.532 0 0 0 .457.96m1.919-.913a.532.532 0 1 0-.458-.96.532.532 0 0 0 .458.96m1.919-.914a.53.53 0 1 0-.456-.959.53.53 0 0 0 .456.96m1.918-.914a.532.532 0 1 0-.456-.96.532.532 0 0 0 .456.96" mask="url(#x)" transform="rotate(75 1.366 27.353)"/>
            <mask id="z" fill="#fff">
                <use xlink:href="#y"/>
            </mask>
            <path fill="#81EBF7" d="M14.466 42.997a.532.532 0 1 0 .542.914.532.532 0 0 0-.542-.914m-1.503.023a.53.53 0 1 0-.513.929.53.53 0 0 0 .513-.929m-.785-1.283a.532.532 0 1 0-1.063.032.532.532 0 0 0 1.063-.032m.705-1.33a.531.531 0 1 0-.57-.896.531.531 0 0 0 .57.897m1.501-.07a.53.53 0 1 0 .485-.944.53.53 0 0 0-.485.944m.825 1.258a.531.531 0 1 0 1.06-.064.531.531 0 0 0-1.06.064" mask="url(#z)" transform="rotate(75 13.693 41.675)"/>
        </g>
    </g>
</svg>
