<svg xmlns="http://www.w3.org/2000/svg" xmlns:xlink="http://www.w3.org/1999/xlink" width="172" height="128" viewBox="0 0 172 128">
    <defs>
        <path id="a" d="M112 56c0 30.928-25.072 56-56 56S0 86.928 0 56 25.072 0 56 0s56 25.072 56 56"/>
        <rect id="c" width="25.208" height="4.583" rx="2"/>
        <path id="e" d="M0 0h3.438v45.833H0z"/>
        <path id="f" d="M2.292 0h2.292v45.833H2.292z"/>
        <rect id="g" width="25.208" height="4.583" rx="2"/>
        <path id="i" d="M0 0h3.438v45.833H0z"/>
        <path id="j" d="M2.292 0h2.292v45.833H2.292z"/>
        <rect id="k" width="25.208" height="4.583" rx="2"/>
        <path id="m" d="M0 0h3.438v45.833H0z"/>
        <path id="n" d="M2.292 0h2.292v45.833H2.292z"/>
        <rect id="o" width="25.208" height="4.583" rx="2"/>
        <path id="q" d="M0 0h3.438v45.833H0z"/>
        <path id="r" d="M2.292 0h2.292v45.833H2.292z"/>
    </defs>
    <g fill="none" fill-rule="evenodd">
        <path stroke="#E0B443" stroke-linecap="round" stroke-linejoin="round" d="M110 73.825l8.095-.683.685-8.097 8.097-.685.686-8.098 8.097-.686.684-8.096 8.1-.687.69-8.102 8.103-.691M19 92.825l8.095-.684.685-8.096 8.097-.685.685-8.098 8.098-.686.684-8.096 8.1-.687.69-8.102L62.237 57"/>
        <path fill="#F9F9F9" d="M142 70c0 30.928-25.072 56-56 56s-56-25.072-56-56 25.072-56 56-56 56 25.072 56 56"/>
        <g transform="translate(30 14)">
            <mask id="b" fill="#fff">
                <use xlink:href="#a"/>
            </mask>
            <use fill="#F9F9F9" xlink:href="#a"/>
            <g mask="url(#b)">
                <g transform="translate(29 26)">
                    <rect width="16.042" height="9.167" x="19.479" y="84.792" fill="#3A769E" fill-rule="nonzero" rx="4.583"/>
                    <path fill="#E6E6E6" d="M0 27.5C0 12.312 12.312 0 27.5 0S55 12.312 55 27.5 39.711 67.217 37.931 71.147C30.336 87.935 27.58 84.674 27.506 84.988l-.009.03v-.03c-.069-.314-2.825 2.947-10.421-13.841C15.29 67.197 0 42.687 0 27.5z"/>
                    <path stroke="#54C0D1" stroke-linecap="round" stroke-linejoin="round" d="M12.604 32.083c1.594 0 1.594 5.73 3.188 5.73s1.594-5.73 3.188-5.73 1.594 5.73 3.188 5.73 1.594-5.73 3.188-5.73 1.594 5.73 3.188 5.73 1.594-5.73 3.189-5.73c1.594 0 1.594 5.73 3.188 5.73 1.595 0 1.595-5.73 3.19-5.73s2.054 2.292 1.57 5.73c-.323 2.291-2.395 14.513-6.216 36.666H21.844c-6.995-25.185-10.615-38.553-10.858-40.104-.244-1.551.296-2.315 1.618-2.292z"/>
                    <path fill="#F9F9F9" fill-opacity=".36" d="M11.458 27.5c0 15.188 7.27 39.698 9.055 43.647 1.84 4.066 3.396 6.957 4.699 9.006-4.075 6.412-5.672 4.597-5.727 4.835l-.009.03v-.03c-.068-.314 5.196 2.947-2.4-13.841C15.29 67.197 0 42.687 0 27.5 0 12.833 11.483.847 25.95.043 26.29.024 26.807.01 27.5 0c-3.737 2.396-6.793 4.687-9.167 6.875-5.452 5.025-6.875 12.626-6.875 20.625z"/>
                    <g transform="translate(14.896 72.188)">
                        <mask id="d" fill="#fff">
                            <use xlink:href="#c"/>
                        </mask>
                        <g mask="url(#d)">
                            <g fill-rule="nonzero" transform="rotate(-90 -1.719 6.302)">
                                <use fill="#A39D9D" xlink:href="#e"/>
                                <use fill="#D9D7D7" xlink:href="#f"/>
                            </g>
                        </g>
                    </g>
                    <g transform="translate(14.896 76.77)">
                        <mask id="h" fill="#fff">
                            <use xlink:href="#g"/>
                        </mask>
                        <g mask="url(#h)">
                            <g fill-rule="nonzero" transform="rotate(-90 -1.719 6.302)">
                                <use fill="#A39D9D" xlink:href="#i"/>
                                <use fill="#D9D7D7" xlink:href="#j"/>
                            </g>
                        </g>
                    </g>
                    <g transform="translate(14.896 81.354)">
                        <mask id="l" fill="#fff">
                            <use xlink:href="#k"/>
                        </mask>
                        <g mask="url(#l)">
                            <g fill-rule="nonzero" transform="rotate(-90 -1.719 6.302)">
                                <use fill="#A39D9D" xlink:href="#m"/>
                                <use fill="#D9D7D7" xlink:href="#n"/>
                            </g>
                        </g>
                    </g>
                    <g transform="translate(14.896 85.938)">
                        <mask id="p" fill="#fff">
                            <use xlink:href="#o"/>
                        </mask>
                        <g mask="url(#p)">
                            <g fill-rule="nonzero" transform="rotate(-90 -1.719 6.302)">
                                <use fill="#A39D9D" xlink:href="#q"/>
                                <use fill="#D9D7D7" xlink:href="#r"/>
                            </g>
                        </g>
                    </g>
                </g>
            </g>
        </g>
        <path stroke="#E0B443" stroke-linecap="round" stroke-linejoin="round" d="M125.877 48.36l.685-8.098 8.098-.686.684-8.096 8.1-.687.69-8.102 8.103-.691M20 108.825l8.095-.683.685-8.097 8.097-.685.686-8.098 8.097-.686.684-8.096"/>
    </g>
</svg>
