<svg xmlns="http://www.w3.org/2000/svg" width="172" height="128" viewBox="0 0 172 128">
    <g fill="none" fill-rule="evenodd">
        <path d="M0 0h172v128H0z"/>
        <path fill="#F9F9F9" d="M142 70c0 30.928-25.072 56-56 56s-56-25.072-56-56 25.072-56 56-56 56 25.072 56 56"/>
        <path fill="#C67F2A" d="M102.37 41.986a1.883 1.883 0 0 1-1.881-1.88v-3.242c0-1.037.843-1.88 1.88-1.88h13.355c1.036 0 1.88.843 1.88 1.88v3.242c0 1.037-.844 1.88-1.88 1.88h-13.355z"/>
        <path fill="#F5F5F5" d="M115.723 34.357H102.37a2.51 2.51 0 0 0-2.507 2.507v3.242a2.51 2.51 0 0 0 2.507 2.507h13.354a2.51 2.51 0 0 0 2.508-2.507v-3.242a2.51 2.51 0 0 0-2.508-2.507"/>
        <path fill="#F5F5F5" d="M115.723 35.61c.692 0 1.254.562 1.254 1.254v3.242c0 .692-.562 1.254-1.254 1.254H102.37a1.254 1.254 0 0 1-1.254-1.254v-3.242c0-.692.562-1.253 1.254-1.253h13.354"/>
        <path fill="#B3ADAD" d="M115.742 89.459a.628.628 0 1 0 .467-1.165.628.628 0 0 0-.467 1.164zM117.52 90.774a.626.626 0 1 0 .926-.843.626.626 0 0 0-.927.843zM118.99 92.715a.627.627 0 1 0 1.03-.717.627.627 0 0 0-1.03.717zM120.569 94.783a.627.627 0 1 0 .923-.85.627.627 0 0 0-.923.85zM122.823 96.4a.627.627 0 1 0 .455-1.168.627.627 0 0 0-.455 1.168zM125.613 96.682a.627.627 0 1 0-.194-1.239.627.627 0 0 0 .194 1.24zM128.165 95.505a.626.626 0 1 0-.799-.966.628.628 0 0 0 .8.966zM129.94 93.512a.627.627 0 1 0-1.016-.736.627.627 0 0 0 1.015.736zM131.391 91.474a.627.627 0 1 0-.995-.763.627.627 0 0 0 .995.763zM133.018 89.847a.626.626 0 1 0-.695-1.042.626.626 0 0 0 .695 1.042zM135.05 89.185a.627.627 0 1 0-.056-1.254.627.627 0 0 0 .057 1.254zM137.146 89.638a.627.627 0 1 0 .594-1.104.627.627 0 0 0-.594 1.104zM115.567 78.739a.627.627 0 1 0 .497-1.15.627.627 0 0 0-.497 1.15zM117.337 80.105a.627.627 0 1 0 .917-.856.627.627 0 0 0-.917.856zM118.904 82a.626.626 0 1 0 .984-.775.626.626 0 0 0-.984.776zM120.575 83.965a.627.627 0 1 0 .897-.878.627.627 0 0 0-.897.878zM122.754 85.593a.627.627 0 1 0 .534-1.135.627.627 0 0 0-.534 1.135zM125.524 86.057a.627.627 0 1 0-.128-1.247.627.627 0 0 0 .128 1.247zM128.134 85.021a.627.627 0 1 0-.756-1.001.627.627 0 0 0 .756 1.001zM129.972 83.07a.626.626 0 1 0-1.004-.747.626.626 0 0 0 1.004.746zM131.427 81.02a.627.627 0 1 0-1.008-.748.627.627 0 0 0 1.009.748zM133.014 79.325a.628.628 0 0 0-.752-1.003.626.626 0 1 0 .752 1.003zM134.999 78.54a.626.626 0 1 0-.125-1.247.626.626 0 0 0 .125 1.248zM137.12 78.868a.627.627 0 1 0 .522-1.14.627.627 0 0 0-.522 1.14zM138.859 80.255a.627.627 0 0 0 .945-.823.627.627 0 0 0-.945.823z"/>
        <path fill="#CCC8C8" d="M91.204 55.155c0-.171.032-.312.089-.447.084-.201.236-.386.422-.512.19-.125.389-.192.642-.194h6.95c2.05 0 4.028-.418 5.818-1.177 2.688-1.138 4.961-5.026 6.571-7.41a14.902 14.902 0 0 0 2.556-8.358 14.93 14.93 0 0 0-1.176-5.819 15 15 0 0 0-5.41-6.572 14.901 14.901 0 0 0-8.36-2.555H46.574l-6.46 8.776h59.192c.865 0 1.664.172 2.401.483a6.208 6.208 0 0 1 2.718 2.24c.665.99 1.05 4.154 1.052 5.447-.001.864-.173 1.664-.484 2.4a6.205 6.205 0 0 1-2.24 2.718 6.112 6.112 0 0 1-3.447 1.052h-6.949a9.917 9.917 0 0 0-8.23 4.374 9.905 9.905 0 0 0-1.698 5.554v11.64h8.775v-11.64z"/>
        <path fill="#B3AEAD" d="M99.306 32.887H85.68h13.626a6.179 6.179 0 0 1 6.149 5.653 6.095 6.095 0 0 0-1.03-2.93 6.208 6.208 0 0 0-2.718-2.24 6.128 6.128 0 0 0-2.4-.483M75.183 32.887H40.059h35.124M105.47 39.335"/>
        <path fill="#A39D9D" d="M85.425 30.887H40.06a56.105 56.105 0 0 1 3.204-4.388h56.988c5.935 0 9.452 3.756 9.452 10.005 0 2.001-1.07 2.246-2.252 2.246-.19 0-.384-.007-.576-.013-.192-.007-.383-.013-.569-.013-.406 0-.788.03-1.102.157h-.001a6.106 6.106 0 0 0 .273-1.824c0-.17-.007-.337-.02-.503v-.008l-.001-.006a6.095 6.095 0 0 0-1.03-2.93 6.205 6.205 0 0 0-2.718-2.24 6.128 6.128 0 0 0-2.4-.483H85.424z"/>
        <path fill="#B3AEAD" d="M102.648 53.626a15.003 15.003 0 0 1-3.342.376h-6.95a1.12 1.12 0 0 0-.64.195c-.187.124-.339.31-.423.51a1.154 1.154 0 0 1 1.064-.705h6.95c1.148 0 2.266-.13 3.341-.376"/>
        <path fill="#A39D9D" d="M114.249 39.33c-2.603.004-5.203.664-5.203 2.03 0 1.777-3.356 8.254-10.627 8.254-1.577 0-3.065-.232-4.566-.232-1.689 0-3.396.294-5.268 1.544-2.925 1.952-1.522 9.21-1.522 9.21s1.639.251 4.14.623v-5.604a1.11 1.11 0 0 1 .089-.448c.085-.2.237-.386.424-.51a1.12 1.12 0 0 1 .64-.195h6.95c1.143 0 2.264-.13 3.342-.376 6.336-1.453 11.148-6.944 11.573-13.608v-.01l.002-.032.001-.016.002-.024c.012-.2.02-.403.023-.605"/>
        <path fill="#FFF" d="M85.68 32.887v1.666h-1.136 1.136z"/>
        <path fill="#CCC8C8" d="M85.68 28.43h-.232.232v.069z"/>
        <path fill="#8F8888" d="M85.68 28.5v4.387z"/>
        <path fill="#FFF" d="M75.183 32.887v1.666h1.346-1.346z"/>
        <path fill="#CCC8C8" d="M75.626 28.43h-.443v.069-.068h.443z"/>
        <path fill="#C67F2A" d="M76.88 28.43h7.314-7.315z"/>
        <path fill="#B3ADAD" d="M12.627 47.116a.624.624 0 0 1-.238-.05.732.732 0 0 1-.207-.132.645.645 0 0 1-.182-.445c0-.082.019-.163.05-.238a.585.585 0 0 1 .132-.207.585.585 0 0 1 .207-.132.64.64 0 0 1 .683.132c.113.119.182.282.182.445 0 .163-.063.32-.182.445a.642.642 0 0 1-.445.182M55.663 46.959a.623.623 0 0 1-.633-.614.629.629 0 0 1 .614-.64.63.63 0 0 1 .64.62.624.624 0 0 1-.621.634zM77.068 46.972a.627.627 0 0 1-.583-.671.623.623 0 0 1 .664-.582.63.63 0 0 1 .583.67.62.62 0 0 1-.62.583h-.044zM33.581 46.42a.617.617 0 0 1 .557-.683.627.627 0 0 1 .69.558.635.635 0 0 1-.564.689H34.2a.624.624 0 0 1-.62-.563zM14.833 47.179a.625.625 0 1 1 .495-1.147h.007a.633.633 0 0 1 .326.82.639.639 0 0 1-.577.383.616.616 0 0 1-.25-.056zM36.389 47.31a.628.628 0 1 1 .514-1.144.628.628 0 0 1-.514 1.145zM74.122 47.09a.622.622 0 0 1 .275-.84.625.625 0 1 1 .282 1.185.614.614 0 0 1-.557-.344zM57.738 47.48a.618.618 0 0 1-.226-.853c.169-.301.551-.408.853-.232.3.175.4.558.231.859a.638.638 0 0 1-.545.313.637.637 0 0 1-.313-.088zM52.754 47.354a.624.624 0 0 1 .2-.865.618.618 0 0 1 .86.2.621.621 0 0 1-.201.86.59.59 0 0 1-.332.1.626.626 0 0 1-.527-.295zM79.073 47.686a.632.632 0 0 1-.15-.877.63.63 0 0 1 1.028.727.644.644 0 0 1-.514.263.653.653 0 0 1-.364-.113zM31.406 47.642a.618.618 0 0 1 .125-.877.628.628 0 1 1 .37 1.128.613.613 0 0 1-.495-.25zM16.607 48.545h-.006a.631.631 0 0 1 .031-.884.633.633 0 0 1 .89.031.63.63 0 0 1-.457 1.054.618.618 0 0 1-.458-.201zM38.126 48.696a.626.626 0 1 1 .883.062.641.641 0 0 1-.413.157.628.628 0 0 1-.47-.22zM72.36 48.883a.626.626 0 0 1-.069-.884.624.624 0 1 1 .953.809.618.618 0 0 1-.884.075zM59.41 49.01a.62.62 0 0 1 .095-.879.62.62 0 0 1 .877.095.627.627 0 0 1-.489 1.02.605.605 0 0 1-.482-.237zM51.087 49.234a.622.622 0 0 1-.107-.877.626.626 0 0 1 .878-.106.615.615 0 0 1 .107.877h.006a.646.646 0 0 1-.495.245.603.603 0 0 1-.389-.139zM80.684 49.34a.634.634 0 0 1 .12-.882.629.629 0 0 1 .877.124.622.622 0 0 1-.495 1.003.618.618 0 0 1-.502-.244zM29.814 49.592a.627.627 0 1 1 .752-1.001.627.627 0 0 1-.752 1zM18.174 50.445a.628.628 0 0 1 .984-.778.634.634 0 0 1-.106.884.633.633 0 0 1-.878-.106zM39.585 50.657a.624.624 0 0 1 .15-.871.638.638 0 0 1 .878.157.63.63 0 0 1-.514.984.617.617 0 0 1-.514-.27zM70.925 50.945a.62.62 0 0 1-.157-.87.619.619 0 0 1 .872-.158c.282.201.35.59.156.872a.62.62 0 0 1-.871.157zM60.852 51.014a.624.624 0 0 1 .152-.87.63.63 0 0 1 .876.15.637.637 0 0 1-.15.877.634.634 0 0 1-.878-.157zM49.645 51.296a.63.63 0 0 1-.144-.876c.2-.283.59-.346.872-.145.282.2.35.595.15.877a.63.63 0 0 1-.514.258.654.654 0 0 1-.364-.114zM28.366 51.641a.624.624 0 1 1 .746-1.003.621.621 0 0 1 .125.871.615.615 0 0 1-.871.132zM19.841 52.406a.624.624 0 0 1 .013-.884.625.625 0 0 1 .884.006.632.632 0 0 1-.006.89.634.634 0 0 1-.89-.012zM41.19 52.713a.624.624 0 0 1 .019-.883.619.619 0 0 1 .884.012.632.632 0 0 1-.452 1.065.643.643 0 0 1-.451-.194zM69.27 52.832a.619.619 0 0 1 .007-.884.624.624 0 0 1 .883 0 .63.63 0 0 1 0 .89.642.642 0 0 1-.445.182.622.622 0 0 1-.445-.188zM62.545 53.045a.625.625 0 0 1-.032-.884.62.62 0 0 1 .884-.037.63.63 0 0 1 .038.884.642.642 0 0 1-.464.2.66.66 0 0 1-.426-.163zM47.91 53.102a.631.631 0 0 1 .056-.884.62.62 0 0 1 .883.056.62.62 0 0 1-.056.885.61.61 0 0 1-.414.156.633.633 0 0 1-.47-.213zM26.523 53.34a.63.63 0 0 1 .125-.878.63.63 0 0 1 .878.126.629.629 0 0 1-.501 1.002.635.635 0 0 1-.502-.25zM22.023 54.035a.625.625 0 0 1-.301-.833.625.625 0 0 1 .833-.301.63.63 0 0 1 .301.834.628.628 0 0 1-.57.357.653.653 0 0 1-.263-.057zM43.503 54.255a.637.637 0 0 1-.395-.796.641.641 0 0 1 .802-.395v.006a.618.618 0 0 1 .389.79.624.624 0 0 1-.596.426.771.771 0 0 1-.2-.03zM67.014 53.885a.621.621 0 0 1 .42-.777.62.62 0 0 1 .778.42.63.63 0 0 1-.596.809.629.629 0 0 1-.602-.452zM64.996 54.387a.62.62 0 0 1-.464-.753.619.619 0 0 1 .752-.463.623.623 0 0 1 .464.752.617.617 0 0 1-.752.464zM45.559 53.935a.634.634 0 0 1 .495-.74.623.623 0 0 1 .733.496.628.628 0 0 1-.488.74c-.045.006-.082.006-.126.006a.634.634 0 0 1-.614-.502zM24.104 53.942a.627.627 0 1 1 .69.557c-.026 0-.045.007-.07.007a.63.63 0 0 1-.62-.564z"/>
        <path stroke="#A39C9D" stroke-linecap="round" stroke-linejoin="round" stroke-width="2" d="M33.95 35.827"/>
        <path fill="#B3ADAD" d="M76.353 35.683a.634.634 0 0 1 .62-.64c.345 0 .633.276.633.622a.622.622 0 0 1-.613.632h-.013a.63.63 0 0 1-.627-.614M54.904 35.758a.622.622 0 0 1 .565-.683.625.625 0 0 1 .683.558.637.637 0 0 1-.565.69h-.062a.626.626 0 0 1-.621-.565M36.157 36.516a.623.623 0 0 1-.326-.82.622.622 0 0 1 .82-.327h.007a.622.622 0 0 1 .32.822.625.625 0 0 1-.57.382.577.577 0 0 1-.251-.057M57.713 36.648a.624.624 0 0 1-.307-.834.62.62 0 0 1 .826-.306.63.63 0 0 1 .307.834.634.634 0 0 1-.57.363.602.602 0 0 1-.256-.057M95.445 36.429a.628.628 0 1 1 0 0M79.06 36.818a.62.62 0 0 1-.225-.853c.17-.3.558-.407.859-.232a.63.63 0 0 1-.32 1.172.585.585 0 0 1-.313-.087M74.078 36.692a.63.63 0 0 1 .2-.865.618.618 0 0 1 .86.201.63.63 0 0 1-.195.865v-.007a.604.604 0 0 1-.332.1.629.629 0 0 1-.533-.294M52.73 36.98a.623.623 0 0 1 .125-.877.63.63 0 0 1 .877.125.63.63 0 0 1-.502 1.004.617.617 0 0 1-.5-.252M37.93 37.883a.62.62 0 0 1 .032-.883.62.62 0 0 1 .884.03.625.625 0 1 1-.916.853M59.448 38.033a.625.625 0 1 1 .884.063.604.604 0 0 1-.407.157.633.633 0 0 1-.477-.22M93.69 38.222a.627.627 0 0 1 .809-.959c.263.226.294.62.075.884a.653.653 0 0 1-.482.225.606.606 0 0 1-.402-.15M80.734 38.354a.627.627 0 0 1 .095-.884.627.627 0 0 1 .884.093.635.635 0 0 1-.1.884.625.625 0 0 1-.878-.093M72.41 38.572a.627.627 0 1 1 .884-.106.63.63 0 0 1-.495.238.646.646 0 0 1-.389-.132M51.143 38.93a.625.625 0 0 1-.131-.878.631.631 0 0 1 .878-.132.63.63 0 0 1 .124.879.608.608 0 0 1-.501.257.626.626 0 0 1-.37-.126M39.497 39.782a.628.628 0 1 1 .985-.777.628.628 0 0 1-.106.877.618.618 0 0 1-.878-.1M60.909 39.996a.62.62 0 0 1 .156-.872.631.631 0 0 1 .872.157.63.63 0 0 1-.514.984.62.62 0 0 1-.514-.27M92.248 40.277a.623.623 0 1 1 .715-1.021.62.62 0 0 1 .157.871.612.612 0 0 1-.514.264.578.578 0 0 1-.358-.114M82.176 40.359a.632.632 0 0 1 .157-.877.631.631 0 0 1 .871.15.63.63 0 0 1-1.028.727M70.975 40.634a.625.625 0 0 1-.15-.877.63.63 0 0 1 1.022.733.628.628 0 0 1-.508.257.62.62 0 0 1-.364-.113M49.683 40.98a.627.627 0 0 1 .752-1.002.62.62 0 0 1 .126.87.607.607 0 0 1-.501.257.645.645 0 0 1-.377-.126M41.165 41.744a.624.624 0 0 1 .012-.883.624.624 0 0 1 .884.006.63.63 0 0 1-.006.89.638.638 0 0 1-.89-.013M62.532 41.167a.624.624 0 0 1 .884.013.625.625 0 0 1-.45 1.066.619.619 0 0 1-.453-.195.625.625 0 0 1 .02-.884zM90.594 42.17a.619.619 0 0 1 .006-.884.626.626 0 0 1 .884.885.618.618 0 0 1-.445.182.625.625 0 0 1-.445-.182M83.874 42.383a.62.62 0 0 1-.037-.884.62.62 0 0 1 .884-.037.625.625 0 0 1-.427 1.084c-.15 0-.3-.05-.42-.163M69.233 42.44a.626.626 0 0 1 .94-.827.62.62 0 0 1-.056.883.612.612 0 0 1-.414.157.632.632 0 0 1-.47-.213M47.847 42.678a.627.627 0 0 1 .125-.877.617.617 0 0 1 .877.125.629.629 0 0 1-.501 1.003.636.636 0 0 1-.501-.251M43.346 43.374a.626.626 0 0 1-.3-.834.623.623 0 0 1 .833-.3c.313.143.445.52.3.833a.626.626 0 0 1-.57.357.654.654 0 0 1-.263-.056M64.826 43.593a.628.628 0 0 1-.388-.795.623.623 0 0 1 .796-.395c.326.112.502.47.388.795a.624.624 0 0 1-.595.426.787.787 0 0 1-.2-.031M88.337 43.223a.623.623 0 0 1 .42-.777.625.625 0 1 1 .364 1.197.609.609 0 0 1-.182.031.627.627 0 0 1-.602-.45M86.325 43.725v.006a.632.632 0 0 1-.47-.758.618.618 0 0 1 .752-.464.627.627 0 0 1 .47.752.629.629 0 0 1-.614.482.5.5 0 0 1-.138-.018M66.888 43.268a.622.622 0 0 1 .49-.734c.344-.07.67.157.739.495a.628.628 0 0 1-.495.734c-.037.012-.082.012-.12.012a.624.624 0 0 1-.614-.507M45.427 43.273a.629.629 0 0 1 .558-.682.627.627 0 1 1 .132 1.247h-.063a.626.626 0 0 1-.627-.565"/>
        <g fill="#4DC8D1" fill-rule="nonzero" transform="translate(101 34)">
            <rect width="17" height="9" x="-.5" y="-.5" stroke="#F9F9F9" rx="2"/>
            <path d="M0 4h16v2a2 2 0 0 1-2 2H2a2 2 0 0 1-2-2V4z" style="mix-blend-mode:multiply"/>
        </g>
        <g fill="#4DC8D1" fill-rule="nonzero" transform="translate(76 20.5)">
            <rect width="9" height="14" x="-.5" y="-.5" stroke="#F9F9F9" rx="2"/>
            <path d="M0 6h8v5a2 2 0 0 1-2 2H2a2 2 0 0 1-2-2V6z" style="mix-blend-mode:multiply"/>
        </g>
        <path fill="#CCC8C8" d="M86.25 114.498C71.223 114.498 59 102.275 59 87.25 59 72.224 71.224 60 86.25 60c15.024 0 27.248 12.224 27.248 27.25 0 15.025-12.224 27.248-27.249 27.248"/>
        <path fill="#A39D9D" d="M102.453 103.453c-8.853 8.852-23.139 8.96-32.123.323-.111-.106-.33-.323-.33-.323L102.453 71l.157.159c8.804 8.973 8.752 23.385-.157 32.294"/>
        <path stroke="#FFF" stroke-linecap="round" stroke-linejoin="round" stroke-width="2" d="M86.272 66.505v41.535M107.04 87.272H65.504M100.956 72.587l-29.368 29.37M71.587 72.587l29.37 29.37"/>
        <path fill="#FFF" d="M88.663 87.272a2.391 2.391 0 1 0-4.782 0 2.391 2.391 0 0 0 4.782 0"/>
        <path stroke="#FFF" stroke-linecap="round" stroke-linejoin="round" stroke-width="2" d="M95.202 87.272a8.93 8.93 0 1 0-17.86.001 8.93 8.93 0 0 0 17.86 0z"/>
        <path stroke="#FFF" stroke-linecap="round" stroke-linejoin="round" stroke-width="1.743" d="M101.771 87.272c0-8.56-6.94-15.499-15.5-15.499-8.559 0-15.498 6.939-15.498 15.5 0 8.559 6.94 15.498 15.499 15.498 8.56 0 15.5-6.94 15.5-15.499z"/>
        <path fill="#FFF" d="M86.272 63.708c-13.014 0-23.564 10.55-23.564 23.564s10.55 23.564 23.564 23.564 23.564-10.55 23.564-23.564-10.55-23.564-23.564-23.564m0 3.09c11.29 0 20.474 9.184 20.474 20.474 0 11.29-9.185 20.474-20.474 20.474-11.29 0-20.475-9.185-20.475-20.474 0-11.29 9.185-20.475 20.475-20.475"/>
    </g>
</svg>
