<svg xmlns="http://www.w3.org/2000/svg" xmlns:xlink="http://www.w3.org/1999/xlink" width="172" height="128" viewBox="0 0 172 128">
    <defs>
        <path id="a" d="M56 112C25.072 112 0 86.928 0 56S25.072 0 56 0s56 25.072 56 56-25.072 56-56 56z"/>
        <rect id="c" width="16" height="83" rx="8"/>
        <rect id="e" width="16" height="83" rx="8"/>
        <rect id="g" width="16" height="83" rx="8"/>
        <rect id="i" width="16" height="83" rx="8"/>
        <rect id="k" width="16" height="83" rx="8"/>
        <path id="m" d="M56 112C25.072 112 0 86.928 0 56S25.072 0 56 0s56 25.072 56 56-25.072 56-56 56z"/>
    </defs>
    <g fill="none" fill-rule="evenodd">
        <path fill="#F9F9F9" d="M142 70c0 30.928-25.072 56-56 56s-56-25.072-56-56 25.072-56 56-56 56 25.072 56 56"/>
        <rect width="68" height="4" x="54" y="72" fill="#A39D9D" fill-rule="nonzero" rx="2"/>
        <g transform="translate(30 14)">
            <mask id="b" fill="#fff">
                <use xlink:href="#a"/>
            </mask>
            <rect width="60" height="4" x="24" y="96" fill="#B3ADAD" fill-rule="nonzero" mask="url(#b)" rx="2"/>
            <g mask="url(#b)">
                <g transform="translate(26 50)">
                    <mask id="d" fill="#fff">
                        <use xlink:href="#c"/>
                    </mask>
                    <use fill="#B3ADAD" fill-rule="nonzero" xlink:href="#c"/>
                    <path fill="#E6E6E6" fill-rule="nonzero" d="M3.5 0h5.115C4.923 0 3.692 2.767 3.692 19.367v63.136a1.553 1.553 0 0 1-1.846 1.525A2.277 2.277 0 0 1 0 81.792V3.5A3.5 3.5 0 0 1 3.5 0z" mask="url(#d)"/>
                </g>
            </g>
            <g mask="url(#b)">
                <g transform="translate(37 50)">
                    <mask id="f" fill="#fff">
                        <use xlink:href="#e"/>
                    </mask>
                    <use fill="#B3ADAD" fill-rule="nonzero" xlink:href="#e"/>
                    <path fill="#E6E6E6" fill-rule="nonzero" d="M3.5 0h5.115C4.923 0 3.692 2.767 3.692 19.367v63.136a1.553 1.553 0 0 1-1.846 1.525A2.277 2.277 0 0 1 0 81.792V3.5A3.5 3.5 0 0 1 3.5 0z" mask="url(#f)"/>
                </g>
            </g>
            <g mask="url(#b)">
                <g transform="translate(48 50)">
                    <mask id="h" fill="#fff">
                        <use xlink:href="#g"/>
                    </mask>
                    <use fill="#B3ADAD" fill-rule="nonzero" xlink:href="#g"/>
                    <path fill="#E6E6E6" fill-rule="nonzero" d="M3.5 0h5.115C4.923 0 3.692 2.767 3.692 19.367v63.136a1.553 1.553 0 0 1-1.846 1.525A2.277 2.277 0 0 1 0 81.792V3.5A3.5 3.5 0 0 1 3.5 0z" mask="url(#h)"/>
                </g>
            </g>
            <g mask="url(#b)">
                <g transform="translate(59 50)">
                    <mask id="j" fill="#fff">
                        <use xlink:href="#i"/>
                    </mask>
                    <use fill="#B3ADAD" fill-rule="nonzero" xlink:href="#i"/>
                    <path fill="#E6E6E6" fill-rule="nonzero" d="M3.5 0h5.115C4.923 0 3.692 2.767 3.692 19.367v63.136a1.553 1.553 0 0 1-1.846 1.525A2.277 2.277 0 0 1 0 81.792V3.5A3.5 3.5 0 0 1 3.5 0z" mask="url(#j)"/>
                </g>
            </g>
            <g mask="url(#b)">
                <g transform="translate(71 50)">
                    <mask id="l" fill="#fff">
                        <use xlink:href="#k"/>
                    </mask>
                    <use fill="#B3ADAD" fill-rule="nonzero" xlink:href="#k"/>
                    <path fill="#E6E6E6" fill-rule="nonzero" d="M3.5 0h5.115C4.923 0 3.692 2.767 3.692 19.367v63.136a1.553 1.553 0 0 1-1.846 1.525A2.277 2.277 0 0 1 0 81.792V3.5A3.5 3.5 0 0 1 3.5 0z" mask="url(#l)"/>
                </g>
            </g>
        </g>
        <g transform="translate(30 14)">
            <mask id="n" fill="#fff">
                <use xlink:href="#m"/>
            </mask>
            <g fill="#DB4F9C" mask="url(#n)">
                <path d="M33.477 36.855a.629.629 0 0 0-.852 0 .566.566 0 0 0-.126.197.598.598 0 0 0-.048.229c0 .078.018.156.048.228.03.072.072.137.126.198.06.054.126.095.198.126.072.03.15.048.228.048a.598.598 0 0 0 .228-.048.637.637 0 0 0 .198-.126.715.715 0 0 0 .126-.198.597.597 0 0 0 .048-.228.597.597 0 0 0-.048-.229.566.566 0 0 0-.126-.197M33.069-1.33a.608.608 0 0 0-.552.649.601.601 0 0 0 .6.552h.048a.603.603 0 0 0-.096-1.2M33.075-4.923h.048c.313 0 .57-.24.6-.552a.608.608 0 0 0-.552-.648.608.608 0 0 0-.648.552.607.607 0 0 0 .552.648M33.057 18.945h.018a.603.603 0 0 0 .582-.624.606.606 0 0 0-.624-.576.601.601 0 0 0 .024 1.2M33.027 16.545h.024a.593.593 0 0 0 .594-.582.597.597 0 1 0-1.194-.036.597.597 0 0 0 .576.618M33.537 2.235a.597.597 0 0 0 .486-.696.608.608 0 0 0-.696-.487.608.608 0 0 0-.486.696.604.604 0 0 0 .594.499c.03 0 .066-.006.102-.012M32.637 13.473c-.042.33.186.63.516.678.03 0 .054.006.078.006.3 0 .558-.222.6-.522a.61.61 0 0 0-.522-.678.604.604 0 0 0-.672.516M33.267 21.333c.024 0 .054 0 .084-.007a.6.6 0 0 0 .504-.678.598.598 0 0 0-1.182.169h-.006c.048.3.3.516.6.516M34.221 11.289a.602.602 0 1 0-1.187-.198.603.603 0 0 0 .498.69c.029.006.065.012.096.012.287 0 .545-.21.593-.504M33.549-8.487a.597.597 0 0 0-.695.485.61.61 0 0 0 .485.697c.036.005.073.005.108.005a.602.602 0 0 0 .588-.491.592.592 0 0 0-.486-.696M33.927 8.21a.598.598 0 1 0-.072 1.194h.036a.596.596 0 1 0 .037-1.194M33.033-2.53c.33 0 .6-.263.6-.593a.603.603 0 0 0-.6-.606c-.33 0-.6.27-.6.6 0 .33.27.6.6.6M32.715 33.128a.711.711 0 0 0 .163.018.59.59 0 0 0 .575-.437.6.6 0 0 0-1.152-.324.604.604 0 0 0 .414.743M32.637 35.523a.606.606 0 0 0 .564-.636.603.603 0 0 0-.636-.564.604.604 0 0 0-.564.636.604.604 0 0 0 .6.564h.036zM33.95 27.278a.6.6 0 0 0-.63.57.598.598 0 0 0 .565.63h.036a.599.599 0 0 0 .6-.569h-.006a.597.597 0 0 0-.564-.63M33.945-13.263a.603.603 0 0 0-.612.594c0 .33.264.6.595.606h.005a.6.6 0 0 0 .012-1.2M33.711 29.667a.6.6 0 1 0-.288 1.164.6.6 0 0 0 .288-1.164M33.927 5.81c-.33 0-.6.277-.594.607.006.33.276.594.6.594h.012a.603.603 0 0 0 .588-.613.597.597 0 0 0-.606-.587M33.903 26.078h.03a.602.602 0 0 0 .57-.63.607.607 0 0 0-.63-.57.602.602 0 0 0-.57.631c.018.324.282.57.6.57M34.407-10.203a.602.602 0 0 0-.54-.66.59.59 0 0 0-.654.534.6.6 0 0 0 .534.66h.06a.593.593 0 0 0 .594-.534h.006zM33.663 23.697c.03 0 .06-.006.09-.006a.607.607 0 0 0 .504-.69.606.606 0 0 0-.684-.498.6.6 0 1 0 .09 1.194M33.8 4.617c.019 0 .043-.006.061-.006a.6.6 0 1 0-.126-1.194.6.6 0 0 0-.534.66c.036.312.294.54.6.54M28.477 36.855a.629.629 0 0 0-.852 0 .566.566 0 0 0-.126.197.598.598 0 0 0-.048.229c0 .078.018.156.048.228.03.072.072.137.126.198.06.054.126.095.198.126.072.03.15.048.228.048a.598.598 0 0 0 .228-.048.637.637 0 0 0 .198-.126.715.715 0 0 0 .126-.198.597.597 0 0 0 .048-.228.597.597 0 0 0-.048-.229.566.566 0 0 0-.126-.197M28.069-1.33a.608.608 0 0 0-.552.649.601.601 0 0 0 .6.552h.048a.603.603 0 0 0-.096-1.2M28.075-4.923h.048c.312 0 .57-.24.6-.552a.608.608 0 0 0-.552-.648.608.608 0 0 0-.648.552.607.607 0 0 0 .552.648M28.057 18.945h.018a.603.603 0 0 0 .582-.624.606.606 0 0 0-.624-.576.601.601 0 0 0 .024 1.2M28.027 16.545h.024a.593.593 0 0 0 .594-.582.597.597 0 1 0-1.194-.036.597.597 0 0 0 .576.618M28.537 2.235a.597.597 0 0 0 .486-.696.608.608 0 0 0-.696-.487.608.608 0 0 0-.486.696.604.604 0 0 0 .594.499c.03 0 .066-.006.102-.012M27.637 13.473c-.042.33.186.63.516.678.03 0 .054.006.078.006.3 0 .558-.222.6-.522a.61.61 0 0 0-.522-.678.604.604 0 0 0-.672.516M28.267 21.333c.024 0 .054 0 .084-.007a.6.6 0 0 0 .504-.678.598.598 0 0 0-1.182.169h-.006c.048.3.3.516.6.516M29.221 11.289a.602.602 0 1 0-1.187-.198.603.603 0 0 0 .498.69c.029.006.065.012.096.012.287 0 .545-.21.593-.504M28.549-8.487a.597.597 0 0 0-.695.485.61.61 0 0 0 .485.697c.036.005.073.005.108.005a.602.602 0 0 0 .588-.491.592.592 0 0 0-.486-.696M28.927 8.21a.598.598 0 1 0-.072 1.194h.036a.596.596 0 1 0 .037-1.194M28.033-2.53c.33 0 .6-.263.6-.593a.603.603 0 0 0-.6-.606c-.33 0-.6.27-.6.6 0 .33.27.6.6.6M27.715 33.128a.711.711 0 0 0 .163.018.59.59 0 0 0 .575-.437.6.6 0 0 0-1.152-.324.604.604 0 0 0 .414.743M27.637 35.523a.606.606 0 0 0 .564-.636.603.603 0 0 0-.636-.564.604.604 0 0 0-.564.636.604.604 0 0 0 .6.564h.036zM28.95 27.278a.6.6 0 0 0-.63.57.598.598 0 0 0 .565.63h.036a.599.599 0 0 0 .6-.569h-.006a.597.597 0 0 0-.564-.63M28.945-13.263a.603.603 0 0 0-.612.594c0 .33.264.6.595.606h.005a.6.6 0 0 0 .012-1.2M28.711 29.667a.6.6 0 1 0-.288 1.164.6.6 0 0 0 .288-1.164M28.927 5.81c-.33 0-.6.277-.594.607.006.33.276.594.6.594h.012a.603.603 0 0 0 .588-.613.597.597 0 0 0-.606-.587M28.903 26.078h.03a.602.602 0 0 0 .57-.63.607.607 0 0 0-.63-.57.602.602 0 0 0-.57.631c.018.324.282.57.6.57M29.407-10.203a.602.602 0 0 0-.54-.66.59.59 0 0 0-.654.534.6.6 0 0 0 .534.66h.06a.593.593 0 0 0 .594-.534h.006zM28.663 23.697c.03 0 .06-.006.09-.006a.607.607 0 0 0 .504-.69.606.606 0 0 0-.684-.498.6.6 0 1 0 .09 1.194M28.8 4.617c.019 0 .043-.006.061-.006a.6.6 0 1 0-.126-1.194.6.6 0 0 0-.534.66c.036.312.294.54.6.54M23.477 36.855a.629.629 0 0 0-.852 0 .566.566 0 0 0-.126.197.598.598 0 0 0-.048.229c0 .078.018.156.048.228.03.072.072.137.126.198.06.054.126.095.198.126.072.03.15.048.228.048a.598.598 0 0 0 .228-.048.637.637 0 0 0 .198-.126.715.715 0 0 0 .126-.198.597.597 0 0 0 .048-.228.597.597 0 0 0-.048-.229.566.566 0 0 0-.126-.197M23.069-1.33a.608.608 0 0 0-.552.649.601.601 0 0 0 .6.552h.048a.603.603 0 0 0-.096-1.2M23.075-4.923h.048c.313 0 .57-.24.6-.552a.608.608 0 0 0-.552-.648.608.608 0 0 0-.648.552.607.607 0 0 0 .552.648M23.057 18.945h.018a.603.603 0 0 0 .582-.624.606.606 0 0 0-.624-.576.601.601 0 0 0 .024 1.2M23.027 16.545h.024a.593.593 0 0 0 .594-.582.597.597 0 1 0-1.194-.036.597.597 0 0 0 .576.618M23.537 2.235a.597.597 0 0 0 .486-.696.608.608 0 0 0-.696-.487.608.608 0 0 0-.486.696.604.604 0 0 0 .594.499c.03 0 .066-.006.102-.012M22.637 13.473c-.042.33.186.63.516.678.03 0 .054.006.078.006.3 0 .558-.222.6-.522a.61.61 0 0 0-.522-.678.604.604 0 0 0-.672.516M23.267 21.333c.024 0 .054 0 .084-.007a.6.6 0 0 0 .504-.678.598.598 0 0 0-1.182.169h-.006c.048.3.3.516.6.516M24.221 11.289a.602.602 0 1 0-1.187-.198.603.603 0 0 0 .498.69c.029.006.065.012.096.012.287 0 .545-.21.593-.504M23.549-8.487a.597.597 0 0 0-.695.485.61.61 0 0 0 .485.697c.036.005.073.005.108.005a.602.602 0 0 0 .589-.491.592.592 0 0 0-.487-.696M23.927 8.21a.598.598 0 1 0-.072 1.194h.036a.596.596 0 1 0 .037-1.194M23.033-2.53c.33 0 .6-.263.6-.593a.603.603 0 0 0-.6-.606c-.33 0-.6.27-.6.6 0 .33.27.6.6.6M22.715 33.128a.711.711 0 0 0 .163.018.59.59 0 0 0 .575-.437.6.6 0 0 0-1.152-.324.604.604 0 0 0 .414.743M22.637 35.523a.606.606 0 0 0 .564-.636.603.603 0 0 0-.636-.564.604.604 0 0 0-.564.636.604.604 0 0 0 .6.564h.036zM23.95 27.278a.6.6 0 0 0-.63.57.598.598 0 0 0 .565.63h.036a.599.599 0 0 0 .6-.569h-.006a.597.597 0 0 0-.564-.63M23.945-13.263a.603.603 0 0 0-.612.594c0 .33.264.6.595.606h.005a.6.6 0 0 0 .012-1.2M23.711 29.667a.6.6 0 1 0-.288 1.164.6.6 0 0 0 .288-1.164M23.927 5.81c-.33 0-.6.277-.594.607.006.33.276.594.6.594h.012a.603.603 0 0 0 .588-.613.597.597 0 0 0-.606-.587M23.903 26.078h.03a.602.602 0 0 0 .57-.63.607.607 0 0 0-.63-.57.602.602 0 0 0-.57.631c.018.324.282.57.6.57M24.407-10.203a.602.602 0 0 0-.54-.66.59.59 0 0 0-.654.534.6.6 0 0 0 .534.66h.06a.593.593 0 0 0 .594-.534h.006zM23.663 23.697c.03 0 .06-.006.09-.006a.607.607 0 0 0 .504-.69.606.606 0 0 0-.684-.498.6.6 0 1 0 .09 1.194M23.8 4.617c.019 0 .043-.006.061-.006a.6.6 0 1 0-.126-1.194.6.6 0 0 0-.534.66c.036.312.294.54.6.54"/>
            </g>
        </g>
        <g fill="#DB4F9C">
            <path d="M128.477 102.855a.629.629 0 0 0-.852 0 .566.566 0 0 0-.126.197.598.598 0 0 0-.048.229c0 .078.018.156.048.228.03.072.072.137.126.198.06.054.126.095.198.126.072.03.15.048.228.048a.598.598 0 0 0 .228-.048.637.637 0 0 0 .198-.126.715.715 0 0 0 .126-.198.597.597 0 0 0 .048-.228.597.597 0 0 0-.048-.229.566.566 0 0 0-.126-.197M128.033 42.002h.024a.597.597 0 0 0 .6-.576.603.603 0 0 0-.576-.624.605.605 0 0 0-.624.576.602.602 0 0 0 .576.624M128.045 44.402h.018a.601.601 0 0 0-.035-1.2.6.6 0 0 0 .017 1.2M128.171 29.547a.597.597 0 0 0 .594.528c.024 0 .048 0 .072-.006a.6.6 0 0 0 .528-.666.6.6 0 0 0-.672-.522.592.592 0 0 0-.522.666M128.05 24.128a.608.608 0 0 0-.557.642.607.607 0 0 0 .6.558h.042a.599.599 0 0 0 .558-.64.6.6 0 0 0-.642-.56M128.069 64.67a.608.608 0 0 0-.552.649.601.601 0 0 0 .6.552h.048a.603.603 0 0 0-.096-1.2M128.075 61.077h.048c.313 0 .57-.24.6-.552a.608.608 0 0 0-.552-.648.608.608 0 0 0-.648.552.607.607 0 0 0 .552.648M128.057 84.945h.018a.603.603 0 0 0 .582-.624.606.606 0 0 0-.624-.576.601.601 0 0 0 .024 1.2M128.027 82.545h.024a.593.593 0 0 0 .594-.582.597.597 0 1 0-1.194-.036.597.597 0 0 0 .576.618M128.28 26.517a.598.598 0 0 0-.487.69c.048.294.3.504.588.504.036 0 .066-.006.102-.012a.602.602 0 0 0 .492-.69.603.603 0 0 0-.696-.492M128.537 68.235a.597.597 0 0 0 .486-.696.608.608 0 0 0-.696-.487.608.608 0 0 0-.486.696.604.604 0 0 0 .594.499c.03 0 .066-.006.102-.012M127.637 79.473c-.042.33.186.63.516.678.03 0 .054.006.078.006.3 0 .558-.222.6-.522a.61.61 0 0 0-.522-.678.604.604 0 0 0-.672.516M128.267 87.333c.024 0 .054 0 .084-.007a.6.6 0 0 0 .504-.678.598.598 0 0 0-1.182.169h-.006c.048.3.3.516.6.516M128.765 36.057a.599.599 0 0 0-.684.504.597.597 0 0 0 .594.69.604.604 0 0 0 .594-.51.605.605 0 0 0-.504-.684M129.221 77.289a.602.602 0 1 0-1.187-.198.603.603 0 0 0 .498.69c.029.006.065.012.096.012.287 0 .545-.21.593-.504M128.549 57.513a.597.597 0 0 0-.696.485.61.61 0 0 0 .486.697c.036.005.072.005.108.005a.602.602 0 0 0 .588-.491.592.592 0 0 0-.486-.696M128.363 38.42a.6.6 0 1 0-.174 1.188c.03.007.06.007.084.007a.6.6 0 0 0 .09-1.194M128.615 49.155c.03 0 .066 0 .096-.007a.598.598 0 1 0-.192-1.181.598.598 0 0 0-.498.69.605.605 0 0 0 .594.498M128.147 45.597a.596.596 0 0 0-.515.672h-.007c.042.3.3.522.6.522.024 0 .048 0 .072-.006a.598.598 0 1 0-.15-1.188M128.927 74.21a.598.598 0 1 0-.072 1.194h.036a.596.596 0 1 0 .037-1.194M128.033 63.47c.33 0 .6-.263.6-.593a.603.603 0 0 0-.6-.606c-.33 0-.6.27-.6.6 0 .33.27.6.6.6M127.715 99.128a.711.711 0 0 0 .163.018.59.59 0 0 0 .575-.437.6.6 0 0 0-1.152-.324.604.604 0 0 0 .414.743M127.637 101.523a.606.606 0 0 0 .564-.636.603.603 0 0 0-.636-.564.604.604 0 0 0-.564.636.604.604 0 0 0 .6.564h.036zM128.027 22.928h.006c.33 0 .6-.263.6-.593a.603.603 0 0 0-.594-.607c-.33 0-.6.264-.606.594 0 .337.264.606.594.606M128.95 93.278a.6.6 0 0 0-.63.57.598.598 0 0 0 .565.63h.036a.599.599 0 0 0 .6-.569h-.006a.597.597 0 0 0-.564-.63M128.945 52.737a.603.603 0 0 0-.612.594c0 .33.264.6.595.606h.005a.6.6 0 0 0 .012-1.2M128.711 95.667a.6.6 0 1 0-.288 1.164.6.6 0 0 0 .288-1.164M128.927 71.81c-.33 0-.6.277-.594.607.006.33.276.594.6.594h.012a.603.603 0 0 0 .588-.613.597.597 0 0 0-.606-.587M128.093 20.535h.054c.307 0 .57-.235.6-.54v-.006a.603.603 0 0 0-.54-.654.603.603 0 0 0-.114 1.2M128.903 92.078h.03a.602.602 0 0 0 .57-.63.607.607 0 0 0-.63-.57.602.602 0 0 0-.57.631c.018.324.282.57.6.57M128.393 18.152a.609.609 0 0 0 .108.013.602.602 0 0 0 .103-1.195.604.604 0 0 0-.697.487.598.598 0 0 0 .486.695M129.407 55.797a.602.602 0 0 0-.54-.66.59.59 0 0 0-.654.534.6.6 0 0 0 .534.66h.06a.593.593 0 0 0 .594-.534h.006zM128.663 89.697c.03 0 .06-.006.09-.006a.607.607 0 0 0 .504-.69.606.606 0 0 0-.684-.498.6.6 0 1 0 .09 1.194M128.885 51.537h.036a.604.604 0 0 0 .564-.637.594.594 0 0 0-.636-.557.597.597 0 0 0 .036 1.194M128.8 70.617c.019 0 .043-.006.061-.006a.6.6 0 1 0-.126-1.194.6.6 0 0 0-.534.66c.036.312.294.54.6.54M128.783 15.783c.018.006.036.006.054.006.306 0 .57-.234.594-.546a.6.6 0 1 0-.648.54M128.933 33.669a.593.593 0 0 0-.624.57c-.018.33.24.612.57.624.006 0 .018.006.024.006a.601.601 0 0 0 .03-1.2M128.915 31.263a.61.61 0 0 0-.587.618.607.607 0 0 0 .6.588h.017a.603.603 0 0 0-.03-1.206M128.513 13.023a.594.594 0 0 0 .426.174.59.59 0 0 0 .228-.042.73.73 0 0 0 .198-.132.63.63 0 0 0 .174-.426.597.597 0 0 0-.048-.228.6.6 0 0 0-.324-.324.606.606 0 0 0-.654.132.6.6 0 0 0-.126.192.613.613 0 0 0-.006.463c.03.07.078.137.132.19M133.477 102.855a.629.629 0 0 0-.852 0 .566.566 0 0 0-.126.197.598.598 0 0 0-.048.229c0 .078.018.156.048.228.03.072.072.137.126.198.06.054.126.095.198.126.072.03.15.048.228.048a.598.598 0 0 0 .228-.048.637.637 0 0 0 .198-.126.715.715 0 0 0 .126-.198.597.597 0 0 0 .048-.228.597.597 0 0 0-.048-.229.566.566 0 0 0-.126-.197M133.033 42.002h.024a.597.597 0 0 0 .6-.576.603.603 0 0 0-.576-.624.605.605 0 0 0-.624.576.602.602 0 0 0 .576.624M133.045 44.402h.018a.601.601 0 0 0-.035-1.2.6.6 0 0 0 .017 1.2M133.171 29.547a.597.597 0 0 0 .594.528c.024 0 .048 0 .072-.006a.6.6 0 0 0 .528-.666.6.6 0 0 0-.672-.522.592.592 0 0 0-.522.666M133.05 24.128a.608.608 0 0 0-.557.642.607.607 0 0 0 .6.558h.042a.599.599 0 0 0 .558-.64.6.6 0 0 0-.642-.56M133.069 64.67a.608.608 0 0 0-.552.649.601.601 0 0 0 .6.552h.048a.603.603 0 0 0-.096-1.2M133.075 61.077h.048c.313 0 .57-.24.6-.552a.608.608 0 0 0-.552-.648.608.608 0 0 0-.648.552.607.607 0 0 0 .552.648M133.057 84.945h.018a.603.603 0 0 0 .582-.624.606.606 0 0 0-.624-.576.601.601 0 0 0 .024 1.2M133.027 82.545h.024a.593.593 0 0 0 .594-.582.597.597 0 1 0-1.194-.036.597.597 0 0 0 .576.618M133.28 26.517a.598.598 0 0 0-.487.69c.048.294.3.504.588.504.036 0 .066-.006.102-.012a.602.602 0 0 0 .492-.69.603.603 0 0 0-.696-.492M133.537 68.235a.597.597 0 0 0 .486-.696.608.608 0 0 0-.696-.487.608.608 0 0 0-.486.696.604.604 0 0 0 .594.499c.03 0 .066-.006.102-.012M132.637 79.473c-.042.33.186.63.516.678.03 0 .054.006.078.006.3 0 .558-.222.6-.522a.61.61 0 0 0-.522-.678.604.604 0 0 0-.672.516M133.267 87.333c.024 0 .054 0 .084-.007a.6.6 0 0 0 .504-.678.598.598 0 0 0-1.182.169h-.006c.048.3.3.516.6.516M133.765 36.057a.599.599 0 0 0-.684.504.597.597 0 0 0 .504.683c.03.006.06.006.09.006a.604.604 0 0 0 .594-.509.605.605 0 0 0-.504-.684M134.221 77.289a.602.602 0 1 0-1.187-.198.603.603 0 0 0 .498.69c.029.006.065.012.096.012.287 0 .545-.21.593-.504M133.549 57.513a.597.597 0 0 0-.696.485.61.61 0 0 0 .486.697c.036.005.072.005.108.005a.602.602 0 0 0 .588-.491.592.592 0 0 0-.486-.696M133.363 38.42a.6.6 0 1 0-.174 1.188c.03.007.06.007.084.007a.6.6 0 0 0 .09-1.194M133.615 49.155c.03 0 .066 0 .096-.007a.598.598 0 1 0-.192-1.181.598.598 0 0 0-.498.69.605.605 0 0 0 .594.498M133.147 45.597a.596.596 0 0 0-.515.672h-.007c.042.3.3.522.6.522.024 0 .048 0 .072-.006a.598.598 0 1 0-.15-1.188M133.927 74.21a.598.598 0 1 0-.072 1.194h.036a.596.596 0 1 0 .037-1.194M133.033 63.47c.33 0 .6-.263.6-.593a.603.603 0 0 0-.6-.606c-.33 0-.6.27-.6.6 0 .33.27.6.6.6M132.715 99.128a.711.711 0 0 0 .163.018.59.59 0 0 0 .575-.437.6.6 0 0 0-1.152-.324.604.604 0 0 0 .414.743M132.637 101.523a.606.606 0 0 0 .564-.636.603.603 0 0 0-.636-.564.604.604 0 0 0-.564.636.604.604 0 0 0 .6.564h.036zM133.027 22.928h.006c.33 0 .6-.263.6-.593a.603.603 0 0 0-.594-.607c-.33 0-.6.264-.606.594 0 .337.264.606.594.606M133.95 93.278a.6.6 0 0 0-.63.57.598.598 0 0 0 .565.63h.036a.599.599 0 0 0 .6-.569h-.006a.597.597 0 0 0-.564-.63M133.945 52.737a.603.603 0 0 0-.612.594c0 .33.264.6.595.606h.005a.6.6 0 0 0 .012-1.2M133.711 95.667a.6.6 0 1 0-.288 1.164.6.6 0 0 0 .288-1.164M133.927 71.81c-.33 0-.6.277-.594.607.006.33.276.594.6.594h.012a.603.603 0 0 0 .588-.613.597.597 0 0 0-.606-.587M133.093 20.535h.054c.307 0 .57-.235.6-.54v-.006a.603.603 0 0 0-.54-.654.603.603 0 0 0-.114 1.2M133.903 92.078h.03a.602.602 0 0 0 .57-.63.607.607 0 0 0-.63-.57.602.602 0 0 0-.57.631c.018.324.282.57.6.57M133.393 18.152a.609.609 0 0 0 .108.013.602.602 0 0 0 .103-1.195.604.604 0 0 0-.697.487.598.598 0 0 0 .486.695M134.407 55.797a.602.602 0 0 0-.54-.66.59.59 0 0 0-.654.534.6.6 0 0 0 .534.66h.06a.593.593 0 0 0 .594-.534h.006zM133.663 89.697c.03 0 .06-.006.09-.006a.607.607 0 0 0 .504-.69.606.606 0 0 0-.684-.498.6.6 0 1 0 .09 1.194M133.885 51.537h.036a.604.604 0 0 0 .564-.637.594.594 0 0 0-.636-.557.597.597 0 0 0 .036 1.194M133.8 70.617c.019 0 .043-.006.061-.006a.6.6 0 1 0-.126-1.194.6.6 0 0 0-.534.66c.036.312.294.54.6.54M133.783 15.783c.018.006.036.006.054.006.306 0 .57-.234.594-.546a.6.6 0 1 0-.648.54M133.933 33.669a.593.593 0 0 0-.624.57c-.018.33.24.612.57.624.006 0 .018.006.024.006a.601.601 0 0 0 .03-1.2M133.915 31.263a.61.61 0 0 0-.587.618.607.607 0 0 0 .6.588h.017a.603.603 0 0 0-.03-1.206M133.513 13.023a.594.594 0 0 0 .426.174.59.59 0 0 0 .228-.042.73.73 0 0 0 .198-.132.63.63 0 0 0 .174-.426.597.597 0 0 0-.048-.228.6.6 0 0 0-.324-.324.606.606 0 0 0-.654.132.6.6 0 0 0-.126.192.613.613 0 0 0-.006.463c.03.07.078.137.132.19M138.477 102.855a.629.629 0 0 0-.852 0 .566.566 0 0 0-.126.197.598.598 0 0 0-.048.229c0 .078.018.156.048.228.03.072.072.137.126.198.06.054.126.095.198.126.072.03.15.048.228.048a.598.598 0 0 0 .228-.048.637.637 0 0 0 .198-.126.715.715 0 0 0 .126-.198.597.597 0 0 0 .048-.228.597.597 0 0 0-.048-.229.566.566 0 0 0-.126-.197M138.033 42.002h.024a.597.597 0 0 0 .6-.576.603.603 0 0 0-.576-.624.605.605 0 0 0-.624.576.602.602 0 0 0 .576.624M138.045 44.402h.018a.601.601 0 0 0-.035-1.2.6.6 0 0 0 .017 1.2M138.171 29.547a.597.597 0 0 0 .594.528c.024 0 .048 0 .072-.006a.6.6 0 0 0 .528-.666.6.6 0 0 0-.672-.522.592.592 0 0 0-.522.666M138.05 24.128a.608.608 0 0 0-.557.642.607.607 0 0 0 .6.558h.042a.599.599 0 0 0 .558-.64.6.6 0 0 0-.642-.56M138.069 64.67a.608.608 0 0 0-.552.649.601.601 0 0 0 .6.552h.048a.603.603 0 0 0-.096-1.2M138.075 61.077h.048c.313 0 .57-.24.6-.552a.608.608 0 0 0-.552-.648.608.608 0 0 0-.648.552.607.607 0 0 0 .552.648M138.057 84.945h.018a.603.603 0 0 0 .582-.624.606.606 0 0 0-.624-.576.601.601 0 0 0 .024 1.2M138.027 82.545h.024a.593.593 0 0 0 .594-.582.597.597 0 1 0-1.194-.036.597.597 0 0 0 .576.618M138.28 26.517a.598.598 0 0 0-.487.69c.048.294.3.504.588.504.036 0 .066-.006.102-.012a.602.602 0 0 0 .492-.69.603.603 0 0 0-.696-.492M138.537 68.235a.597.597 0 0 0 .486-.696.608.608 0 0 0-.696-.487.608.608 0 0 0-.486.696.604.604 0 0 0 .594.499c.03 0 .066-.006.102-.012M137.637 79.473c-.042.33.186.63.516.678.03 0 .054.006.078.006.3 0 .558-.222.6-.522a.61.61 0 0 0-.522-.678.604.604 0 0 0-.672.516M138.267 87.333c.024 0 .054 0 .084-.007a.6.6 0 0 0 .504-.678.598.598 0 0 0-1.182.169h-.006c.048.3.3.516.6.516M138.765 36.057a.599.599 0 0 0-.684.504.597.597 0 0 0 .504.683c.03.006.06.006.09.006a.604.604 0 0 0 .594-.509.605.605 0 0 0-.504-.684M139.221 77.289a.602.602 0 1 0-1.187-.198.603.603 0 0 0 .498.69c.029.006.065.012.096.012.287 0 .545-.21.593-.504M138.549 57.513a.597.597 0 0 0-.696.485.61.61 0 0 0 .486.697c.036.005.072.005.108.005a.602.602 0 0 0 .588-.491.592.592 0 0 0-.486-.696M138.363 38.42a.6.6 0 1 0-.174 1.188c.03.007.06.007.084.007a.6.6 0 0 0 .09-1.194M138.615 49.155c.03 0 .066 0 .096-.007a.598.598 0 1 0-.192-1.181.598.598 0 0 0-.498.69.605.605 0 0 0 .594.498M138.147 45.597a.596.596 0 0 0-.515.672h-.007c.042.3.3.522.6.522.024 0 .048 0 .072-.006a.598.598 0 1 0-.15-1.188M138.927 74.21a.598.598 0 1 0-.072 1.194h.036a.596.596 0 1 0 .037-1.194M138.033 63.47c.33 0 .6-.263.6-.593a.603.603 0 0 0-.6-.606c-.33 0-.6.27-.6.6 0 .33.27.6.6.6M137.715 99.128a.711.711 0 0 0 .163.018.59.59 0 0 0 .575-.437.6.6 0 0 0-1.152-.324.604.604 0 0 0 .414.743M137.637 101.523a.606.606 0 0 0 .564-.636.603.603 0 0 0-.636-.564.604.604 0 0 0-.564.636.604.604 0 0 0 .6.564h.036zM138.027 22.928h.006c.33 0 .6-.263.6-.593a.603.603 0 0 0-.594-.607c-.33 0-.6.264-.606.594 0 .337.264.606.594.606M138.95 93.278a.6.6 0 0 0-.63.57.598.598 0 0 0 .565.63h.036a.599.599 0 0 0 .6-.569h-.006a.597.597 0 0 0-.564-.63M138.945 52.737a.603.603 0 0 0-.612.594c0 .33.264.6.595.606h.005a.6.6 0 0 0 .012-1.2M138.711 95.667a.6.6 0 1 0-.288 1.164.6.6 0 0 0 .288-1.164M138.927 71.81c-.33 0-.6.277-.594.607.006.33.276.594.6.594h.012a.603.603 0 0 0 .588-.613.597.597 0 0 0-.606-.587M138.093 20.535h.054c.307 0 .57-.235.6-.54v-.006a.603.603 0 0 0-.54-.654.603.603 0 0 0-.114 1.2M138.903 92.078h.03a.602.602 0 0 0 .57-.63.607.607 0 0 0-.63-.57.602.602 0 0 0-.57.631c.018.324.282.57.6.57M138.393 18.152a.609.609 0 0 0 .108.013.602.602 0 0 0 .103-1.195.604.604 0 0 0-.697.487.598.598 0 0 0 .486.695M139.407 55.797a.602.602 0 0 0-.54-.66.59.59 0 0 0-.654.534.6.6 0 0 0 .534.66h.06a.593.593 0 0 0 .594-.534h.006zM138.663 89.697c.03 0 .06-.006.09-.006a.607.607 0 0 0 .504-.69.606.606 0 0 0-.684-.498.6.6 0 1 0 .09 1.194M138.885 51.537h.036a.604.604 0 0 0 .564-.637.594.594 0 0 0-.636-.557.597.597 0 0 0 .036 1.194M138.8 70.617c.019 0 .043-.006.061-.006a.6.6 0 1 0-.126-1.194.6.6 0 0 0-.534.66c.036.312.294.54.6.54M138.783 15.783c.018.006.036.006.054.006.306 0 .57-.234.594-.546a.6.6 0 1 0-.648.54M138.933 33.669a.593.593 0 0 0-.624.57c-.018.33.24.612.57.624.006 0 .018.006.024.006a.601.601 0 0 0 .03-1.2M138.915 31.263a.61.61 0 0 0-.587.618.607.607 0 0 0 .6.588h.017a.603.603 0 0 0-.03-1.206M138.513 13.023a.594.594 0 0 0 .426.174.59.59 0 0 0 .228-.042.73.73 0 0 0 .198-.132.63.63 0 0 0 .174-.426.597.597 0 0 0-.048-.228.6.6 0 0 0-.324-.324.606.606 0 0 0-.654.132.6.6 0 0 0-.126.192.613.613 0 0 0-.006.463c.03.07.078.137.132.19"/>
        </g>
        <path fill="#A39D9D" fill-rule="nonzero" d="M111 72h9a2 2 0 0 1 0 4h-9v-4z"/>
        <g fill="#4DC8D1" fill-rule="nonzero" transform="translate(115 69)">
            <rect width="11" height="11" x="-.5" y="-.5" stroke="#F9F9F9" rx="2"/>
            <path d="M0 5h10v3a2 2 0 0 1-2 2H2a2 2 0 0 1-2-2V5z" style="mix-blend-mode:multiply"/>
        </g>
    </g>
</svg>
