<svg xmlns="http://www.w3.org/2000/svg" xmlns:xlink="http://www.w3.org/1999/xlink" width="172" height="128" viewBox="0 0 172 128">
    <defs>
        <path id="a" d="M112 56c0 30.928-25.072 56-56 56S0 86.928 0 56 25.072 0 56 0s56 25.072 56 56"/>
        <path id="c" d="M112 56c0 30.928-25.072 56-56 56S0 86.928 0 56 25.072 0 56 0s56 25.072 56 56"/>
    </defs>
    <g fill="none" fill-rule="evenodd">
        <path d="M0 0h172v128H0z"/>
        <path fill="#F9F9F9" d="M142 70c0 30.928-25.072 56-56 56s-56-25.072-56-56 25.072-56 56-56 56 25.072 56 56"/>
        <g transform="translate(30 14)">
            <mask id="b" fill="#fff">
                <use xlink:href="#a"/>
            </mask>
            <use fill="#F9F9F9" xlink:href="#a"/>
            <path fill="#CCC8C8" d="M63 19c3.124 0 7.507.583 8.908 1.176a15 15 0 0 1 6.572 5.41 14.901 14.901 0 0 1 2.555 8.36v54.79L72.26 89V33.945c0-.864-.173-1.664-.484-2.4a6.208 6.208 0 0 0-2.24-2.718C68.546 28.16 68.44 28 63 28c-5.44 0-10.84-.146-11.552.333-.987.666-1.725 1.972-2.19 3.074a6.139 6.139 0 0 0-.483 2.4V42H40v-8.193a14.901 14.901 0 0 1 2.555-8.359 15 15 0 0 1 6.572-5.41C50.917 19.28 59.877 19 63 19z" mask="url(#b)"/>
            <path fill="#A39D9D" d="M65.817 24.178c6.25 0 10.005 3.517 10.005 9.452v47.82a56.105 56.105 0 0 1-4.387 3.204V34.575c-.001-.864-.173-1.664-.484-2.4a6.205 6.205 0 0 0-2.24-2.718c-.856-.577-1.806-.545-2.894-.635h-10.99c-1.088.09-2.038.058-2.894.635a6.205 6.205 0 0 0-2.24 2.717 6.128 6.128 0 0 0-.483 2.401V42h-4.388v-8.37c0-5.935 3.756-9.452 10.005-9.452h10.99z" mask="url(#b)"/>
            <path fill="#A39D9D" fill-rule="nonzero" d="M71 88h11a2 2 0 0 1 2 2v21H71V88z" mask="url(#b)"/>
            <path fill="#CCC8C8" fill-rule="nonzero" d="M67 88h5v23l-7 1V90a2 2 0 0 1 2-2z" mask="url(#b)"/>
        </g>
        <g transform="translate(30 14)">
            <mask id="d" fill="#fff">
                <use xlink:href="#c"/>
            </mask>
            <g fill="#54C0D1" mask="url(#d)">
                <path d="M106.576 76.2h.024a.597.597 0 0 0 .6-.576.603.603 0 0 0-.576-.624.605.605 0 0 0-.624.576.602.602 0 0 0 .576.624M106.6 78.2h.018a.601.601 0 0 0-.035-1.2.6.6 0 0 0 .017 1.2M106.005 63.67a.597.597 0 0 0 .594.528c.024 0 .048 0 .072-.006a.6.6 0 0 0 .528-.666.6.6 0 0 0-.672-.521.592.592 0 0 0-.522.665M106.559 58.002a.608.608 0 0 0-.558.642.607.607 0 0 0 .6.558h.043a.599.599 0 0 0 .557-.642.6.6 0 0 0-.642-.558M106.554 99.002a.608.608 0 0 0-.552.648.601.601 0 0 0 .6.552h.048a.603.603 0 0 0-.096-1.2M106.554 95.202h.048c.312 0 .57-.24.6-.552a.608.608 0 0 0-.552-.648.608.608 0 0 0-.648.552.607.607 0 0 0 .552.648M106.496 61.008a.598.598 0 0 0-.486.69c.048.294.3.504.588.504.036 0 .066-.006.102-.012a.602.602 0 0 0 .492-.69.603.603 0 0 0-.696-.492M106.704 102.19a.597.597 0 0 0 .486-.695.608.608 0 0 0-.696-.487.608.608 0 0 0-.486.696.604.604 0 0 0 .594.499c.03 0 .066-.006.102-.012M106.005 113.52c-.042.33.186.63.516.678.03 0 .054.007.078.007.3 0 .558-.222.6-.522a.61.61 0 0 0-.522-.678.604.604 0 0 0-.672.515M106.692 70.007a.599.599 0 0 0-.684.504.597.597 0 0 0 .504.683c.03.006.06.006.09.006a.604.604 0 0 0 .594-.51.605.605 0 0 0-.504-.683M107.194 111.698a.602.602 0 1 0-1.187-.198.603.603 0 0 0 .498.69c.03.006.065.012.096.012.287 0 .545-.21.593-.504M106.703 92.01a.597.597 0 0 0-.695.486.61.61 0 0 0 .485.696c.036.006.073.006.108.006a.602.602 0 0 0 .589-.492.592.592 0 0 0-.487-.696M106.69 72.006a.6.6 0 1 0-.174 1.188c.03.006.06.006.084.006a.6.6 0 0 0 .09-1.194M106.602 83.198c.03 0 .066 0 .096-.007a.598.598 0 1 0-.192-1.181.598.598 0 0 0-.498.69.605.605 0 0 0 .594.498M106.522 80.005a.596.596 0 0 0-.515.672H106c.042.3.3.522.6.522.024 0 .048 0 .072-.006a.598.598 0 1 0-.15-1.188M106.638 108.002a.598.598 0 1 0-.072 1.194h.035a.596.596 0 1 0 .037-1.194M106.6 97.2c.33 0 .6-.263.6-.594a.603.603 0 0 0-.6-.606c-.33 0-.6.27-.6.6 0 .33.27.6.6.6M106.594 57.2h.006c.33 0 .6-.263.6-.593a.603.603 0 0 0-.594-.607c-.33 0-.6.264-.606.594 0 .337.263.606.594.606M106.612 87a.603.603 0 0 0-.612.594c0 .33.264.6.595.606h.005a.6.6 0 0 0 .012-1.2M106.594 106c-.33 0-.6.276-.594.606.006.33.276.594.6.594h.011a.603.603 0 0 0 .59-.612.597.597 0 0 0-.607-.588M106.543 54.202h.054c.307 0 .57-.234.6-.54v-.006a.603.603 0 0 0-.54-.654.603.603 0 0 0-.114 1.2M106.496 52.192a.609.609 0 0 0 .108.012.602.602 0 0 0 .103-1.194.604.604 0 0 0-.697.486.598.598 0 0 0 .486.696M107.198 89.664a.602.602 0 0 0-.54-.66.59.59 0 0 0-.654.534.6.6 0 0 0 .533.66h.06a.593.593 0 0 0 .594-.534h.007zM106.6 85.196h.037a.604.604 0 0 0 .564-.637.594.594 0 0 0-.637-.557.597.597 0 0 0 .037 1.194M106.604 104.204c.018 0 .042-.006.06-.006a.6.6 0 1 0-.126-1.194.6.6 0 0 0-.534.66c.036.312.294.54.6.54M106.548 50.196c.018.006.036.006.054.006.306 0 .57-.234.594-.546a.6.6 0 1 0-.648.54M106.625 68a.593.593 0 0 0-.624.57c-.018.33.24.613.57.625.006 0 .017.006.024.006a.601.601 0 0 0 .03-1.2M106.588 65a.61.61 0 0 0-.588.618.607.607 0 0 0 .6.588h.018a.603.603 0 0 0-.03-1.206M106.174 47.023a.594.594 0 0 0 .426.174.59.59 0 0 0 .228-.042.73.73 0 0 0 .198-.132.63.63 0 0 0 .174-.426.597.597 0 0 0-.048-.228.6.6 0 0 0-.324-.324.606.606 0 0 0-.654.132.6.6 0 0 0-.126.192.613.613 0 0 0-.006.463c.03.07.078.137.132.19"/>
            </g>
            <g fill="#54C0D1" mask="url(#d)">
                <path d="M101.576 78.2h.024a.597.597 0 0 0 .6-.576.603.603 0 0 0-.576-.624.605.605 0 0 0-.624.576.602.602 0 0 0 .576.624M101.6 80.2h.018a.601.601 0 0 0-.035-1.2.6.6 0 0 0 .017 1.2M101.005 65.67a.597.597 0 0 0 .594.528c.024 0 .048 0 .072-.006a.6.6 0 0 0 .528-.666.6.6 0 0 0-.672-.521.592.592 0 0 0-.522.665M101.559 60.002a.608.608 0 0 0-.558.642.607.607 0 0 0 .6.558h.043a.599.599 0 0 0 .557-.642.6.6 0 0 0-.642-.558M101.554 101.002a.608.608 0 0 0-.552.648.601.601 0 0 0 .6.552h.048a.603.603 0 0 0-.096-1.2M101.554 97.202h.048c.312 0 .57-.24.6-.552a.608.608 0 0 0-.552-.648.608.608 0 0 0-.648.552.607.607 0 0 0 .552.648M101.496 63.008a.598.598 0 0 0-.486.69c.048.294.3.504.588.504.036 0 .066-.006.102-.012a.602.602 0 0 0 .492-.69.603.603 0 0 0-.696-.492M101.704 104.19a.597.597 0 0 0 .486-.695.608.608 0 0 0-.696-.487.608.608 0 0 0-.486.696.604.604 0 0 0 .594.499c.03 0 .066-.006.102-.012M101.692 72.007a.599.599 0 0 0-.684.504.597.597 0 0 0 .504.683c.03.006.06.006.09.006a.604.604 0 0 0 .594-.51.605.605 0 0 0-.504-.683M102.194 113.698a.602.602 0 1 0-1.187-.198.603.603 0 0 0 .498.69c.03.006.065.012.096.012.287 0 .545-.21.593-.504M101.703 94.01a.597.597 0 0 0-.695.486.61.61 0 0 0 .485.696c.036.006.073.006.108.006a.602.602 0 0 0 .589-.492.592.592 0 0 0-.487-.696M101.69 74.006a.6.6 0 1 0-.174 1.188c.03.006.06.006.084.006a.6.6 0 0 0 .09-1.194M101.602 85.198c.03 0 .066 0 .096-.007a.598.598 0 1 0-.192-1.181.598.598 0 0 0-.498.69.605.605 0 0 0 .594.498M101.522 82.005a.596.596 0 0 0-.515.672H101c.042.3.3.522.6.522.024 0 .048 0 .072-.006a.598.598 0 1 0-.15-1.188M101.638 110.002a.598.598 0 1 0-.072 1.194h.035a.596.596 0 1 0 .037-1.194M101.6 99.2c.33 0 .6-.263.6-.594a.603.603 0 0 0-.6-.606c-.33 0-.6.27-.6.6 0 .33.27.6.6.6M101.594 59.2h.006c.33 0 .6-.263.6-.593a.603.603 0 0 0-.594-.607c-.33 0-.6.264-.606.594 0 .337.263.606.594.606M101.612 89a.603.603 0 0 0-.612.594c0 .33.264.6.595.606h.005a.6.6 0 0 0 .012-1.2M101.594 108c-.33 0-.6.276-.594.606.006.33.276.594.6.594h.011a.603.603 0 0 0 .59-.612.597.597 0 0 0-.607-.588M101.543 56.202h.054c.307 0 .57-.234.6-.54v-.006a.603.603 0 0 0-.54-.654.603.603 0 0 0-.114 1.2M101.496 54.192a.609.609 0 0 0 .108.012.602.602 0 0 0 .103-1.194.604.604 0 0 0-.697.486.598.598 0 0 0 .486.696M102.198 91.664a.602.602 0 0 0-.54-.66.59.59 0 0 0-.654.534.6.6 0 0 0 .533.66h.06a.593.593 0 0 0 .594-.534h.007zM101.6 87.196h.037a.604.604 0 0 0 .564-.637.594.594 0 0 0-.637-.557.597.597 0 0 0 .037 1.194M101.604 106.204c.018 0 .042-.006.06-.006a.6.6 0 1 0-.126-1.194.6.6 0 0 0-.534.66c.036.312.294.54.6.54M101.548 52.196c.018.006.036.006.054.006.306 0 .57-.234.594-.546a.6.6 0 1 0-.648.54M101.625 70a.593.593 0 0 0-.624.57c-.018.33.24.613.57.625.006 0 .017.006.024.006a.601.601 0 0 0 .03-1.2M101.588 67a.61.61 0 0 0-.588.618.607.607 0 0 0 .6.588h.018a.603.603 0 0 0-.03-1.206M101.174 49.023a.594.594 0 0 0 .426.174.59.59 0 0 0 .228-.042.73.73 0 0 0 .198-.132.63.63 0 0 0 .174-.426.597.597 0 0 0-.048-.228.6.6 0 0 0-.324-.324.606.606 0 0 0-.654.132.6.6 0 0 0-.126.192.613.613 0 0 0-.006.463c.03.07.078.137.132.19"/>
            </g>
            <g fill="#54C0D1" mask="url(#d)">
                <path d="M96.576 80.2h.024a.597.597 0 0 0 .6-.576.603.603 0 0 0-.576-.624.605.605 0 0 0-.624.576.602.602 0 0 0 .576.624M96.6 82.2h.018a.601.601 0 0 0-.035-1.2.6.6 0 0 0 .017 1.2M96.005 67.67a.597.597 0 0 0 .594.528c.024 0 .048 0 .072-.006a.6.6 0 0 0 .528-.666.6.6 0 0 0-.672-.521.592.592 0 0 0-.522.665M96.559 62.002a.608.608 0 0 0-.558.642.607.607 0 0 0 .6.558h.043a.599.599 0 0 0 .557-.642.6.6 0 0 0-.642-.558M96.554 103.002a.608.608 0 0 0-.552.648.601.601 0 0 0 .6.552h.048a.603.603 0 0 0-.096-1.2M96.554 99.202h.048c.312 0 .57-.24.6-.552a.608.608 0 0 0-.552-.648.608.608 0 0 0-.648.552.607.607 0 0 0 .552.648M96.496 65.008a.598.598 0 0 0-.486.69c.048.294.3.504.588.504.036 0 .066-.006.102-.012a.602.602 0 0 0 .492-.69.603.603 0 0 0-.696-.492M96.704 106.19a.597.597 0 0 0 .486-.695.608.608 0 0 0-.696-.487.608.608 0 0 0-.486.696.604.604 0 0 0 .594.499c.03 0 .066-.006.102-.012M96.692 74.007a.599.599 0 0 0-.684.504.597.597 0 0 0 .504.683c.03.006.06.006.09.006a.604.604 0 0 0 .594-.51.605.605 0 0 0-.504-.683M96.703 96.01a.597.597 0 0 0-.695.486.61.61 0 0 0 .485.696c.036.006.073.006.108.006a.602.602 0 0 0 .589-.492.592.592 0 0 0-.487-.696M96.69 76.006a.6.6 0 1 0-.174 1.188c.03.006.06.006.084.006a.6.6 0 0 0 .09-1.194M96.602 87.198c.03 0 .066 0 .096-.007a.598.598 0 1 0-.192-1.181.598.598 0 0 0-.498.69.605.605 0 0 0 .594.498M96.522 84.005a.596.596 0 0 0-.515.672H96c.042.3.3.522.6.522.024 0 .048 0 .072-.006a.598.598 0 1 0-.15-1.188M96.638 112.002a.598.598 0 1 0-.072 1.194h.035a.596.596 0 1 0 .037-1.194M96.6 101.2c.33 0 .6-.263.6-.594a.603.603 0 0 0-.6-.606c-.33 0-.6.27-.6.6 0 .33.27.6.6.6M96.594 61.2h.006c.33 0 .6-.263.6-.593a.603.603 0 0 0-.594-.607c-.33 0-.6.264-.606.594 0 .337.263.606.594.606M96.612 91a.603.603 0 0 0-.612.594c0 .33.264.6.595.606h.005a.6.6 0 0 0 .012-1.2M96.594 110c-.33 0-.6.276-.594.606.006.33.276.594.6.594h.011a.603.603 0 0 0 .59-.612.597.597 0 0 0-.607-.588M96.543 58.202h.054c.307 0 .57-.234.6-.54v-.006a.603.603 0 0 0-.54-.654.603.603 0 0 0-.114 1.2M96.496 56.192a.609.609 0 0 0 .108.012.602.602 0 0 0 .103-1.194.604.604 0 0 0-.697.486.598.598 0 0 0 .486.696M97.198 93.664a.602.602 0 0 0-.54-.66.59.59 0 0 0-.654.534.6.6 0 0 0 .533.66h.06a.593.593 0 0 0 .594-.534h.007zM96.6 89.196h.037a.604.604 0 0 0 .564-.637.594.594 0 0 0-.637-.557.597.597 0 0 0 .037 1.194M96.604 108.204c.018 0 .042-.006.06-.006a.6.6 0 1 0-.126-1.194.6.6 0 0 0-.534.66c.036.312.294.54.6.54M96.548 54.196c.018.006.036.006.054.006.306 0 .57-.234.594-.546a.6.6 0 1 0-.648.54M96.625 72a.593.593 0 0 0-.624.57c-.018.33.24.613.57.625.006 0 .017.006.024.006a.601.601 0 0 0 .03-1.2M96.588 69a.61.61 0 0 0-.588.618.607.607 0 0 0 .6.588h.018a.603.603 0 0 0-.03-1.206M96.174 51.023a.594.594 0 0 0 .426.174.59.59 0 0 0 .228-.042.73.73 0 0 0 .198-.132.63.63 0 0 0 .174-.426.597.597 0 0 0-.048-.228.6.6 0 0 0-.324-.324.606.606 0 0 0-.654.132.6.6 0 0 0-.126.192.613.613 0 0 0-.006.463c.03.07.078.137.132.19"/>
            </g>
        </g>
        <g fill="#54C0D1">
            <path d="M43.027 96.166a.629.629 0 0 0-.853 0 .566.566 0 0 0-.126.198.598.598 0 0 0-.048.228c0 .079.018.157.048.228.03.073.072.138.126.199.06.053.126.095.198.125.072.03.15.048.228.048a.598.598 0 0 0 .229-.047.637.637 0 0 0 .198-.126.715.715 0 0 0 .126-.199.597.597 0 0 0 .047-.227.597.597 0 0 0-.047-.23.566.566 0 0 0-.126-.197M42.576 35.2h.024a.597.597 0 0 0 .6-.576.603.603 0 0 0-.576-.624.605.605 0 0 0-.624.576.602.602 0 0 0 .576.624M42.6 37.2h.018a.601.601 0 0 0-.035-1.2.6.6 0 0 0 .017 1.2M42.005 22.67a.597.597 0 0 0 .594.528c.024 0 .048 0 .072-.006a.6.6 0 0 0 .528-.666.6.6 0 0 0-.672-.521.592.592 0 0 0-.522.665M42.559 17.002a.608.608 0 0 0-.558.642.607.607 0 0 0 .6.558h.043a.599.599 0 0 0 .557-.642.6.6 0 0 0-.642-.558M42.554 58.002a.608.608 0 0 0-.552.648.601.601 0 0 0 .6.552h.048a.603.603 0 0 0-.096-1.2M42.554 54.202h.048c.312 0 .57-.24.6-.552a.608.608 0 0 0-.552-.648.608.608 0 0 0-.648.552.607.607 0 0 0 .552.648M42.6 78.2h.018a.603.603 0 0 0 .582-.624.606.606 0 0 0-.624-.576.601.601 0 0 0 .024 1.2M42.577 75.2h.023a.593.593 0 0 0 .594-.582.597.597 0 1 0-1.194-.036.597.597 0 0 0 .577.618M42.496 20.008a.598.598 0 0 0-.486.69c.048.294.3.504.588.504.036 0 .066-.006.102-.012a.602.602 0 0 0 .492-.69.603.603 0 0 0-.696-.492M42.704 61.19a.597.597 0 0 0 .486-.695.608.608 0 0 0-.696-.487.608.608 0 0 0-.486.696.604.604 0 0 0 .594.499c.03 0 .066-.006.102-.012M42.005 72.52c-.042.33.186.63.516.678.03 0 .054.007.078.007.3 0 .558-.222.6-.522a.61.61 0 0 0-.522-.678.604.604 0 0 0-.672.515M42.6 80.2c.024 0 .054 0 .084-.006a.6.6 0 0 0 .504-.678.598.598 0 0 0-1.182.169H42c.048.3.3.515.6.515M42.692 29.007a.599.599 0 0 0-.684.504.597.597 0 0 0 .504.683c.03.006.06.006.09.006a.604.604 0 0 0 .594-.51.605.605 0 0 0-.504-.683M43.194 70.698a.602.602 0 1 0-1.187-.198.603.603 0 0 0 .498.69c.03.006.065.012.096.012.287 0 .545-.21.593-.504M42.703 51.01a.597.597 0 0 0-.695.486.61.61 0 0 0 .485.696c.036.006.073.006.108.006a.602.602 0 0 0 .589-.492.592.592 0 0 0-.487-.696M42.69 31.006a.6.6 0 1 0-.174 1.188c.03.006.06.006.084.006a.6.6 0 0 0 .09-1.194M42.602 42.198c.03 0 .066 0 .096-.007a.598.598 0 1 0-.192-1.181.598.598 0 0 0-.498.69.605.605 0 0 0 .594.498M42.522 39.005a.596.596 0 0 0-.515.672H42c.042.3.3.522.6.522.024 0 .048 0 .072-.006a.598.598 0 1 0-.15-1.188M42.638 67.002a.598.598 0 1 0-.072 1.194h.035a.596.596 0 1 0 .037-1.194M42.6 56.2c.33 0 .6-.263.6-.594a.603.603 0 0 0-.6-.606c-.33 0-.6.27-.6.6 0 .33.27.6.6.6M42.437 92.18a.711.711 0 0 0 .162.018.59.59 0 0 0 .576-.437.6.6 0 0 0-1.152-.324.604.604 0 0 0 .414.743M42.637 94.2a.606.606 0 0 0 .564-.635.603.603 0 0 0-.636-.564.604.604 0 0 0-.564.636.604.604 0 0 0 .6.564h.036zM42.594 16.2h.006c.33 0 .6-.263.6-.593a.603.603 0 0 0-.594-.607c-.33 0-.6.264-.606.594 0 .337.263.606.594.606M42.63 86a.6.6 0 0 0-.63.57.598.598 0 0 0 .565.63h.036a.599.599 0 0 0 .6-.569h-.006a.597.597 0 0 0-.564-.63M42.612 46a.603.603 0 0 0-.612.594c0 .33.264.6.595.606h.005a.6.6 0 0 0 .012-1.2M42.743 89.017a.6.6 0 1 0-.288 1.165.6.6 0 0 0 .288-1.165M42.594 65c-.33 0-.6.276-.594.606.006.33.276.594.6.594h.011a.603.603 0 0 0 .59-.612.597.597 0 0 0-.607-.588M42.543 13.202h.054c.307 0 .57-.234.6-.54v-.006a.603.603 0 0 0-.54-.654.603.603 0 0 0-.114 1.2M42.6 85.2h.03a.602.602 0 0 0 .57-.63.607.607 0 0 0-.63-.57.602.602 0 0 0-.57.631c.018.324.283.57.6.57M42.496 11.192a.609.609 0 0 0 .108.012.602.602 0 0 0 .103-1.194.604.604 0 0 0-.697.486.598.598 0 0 0 .486.696M43.198 48.664a.602.602 0 0 0-.54-.66.59.59 0 0 0-.654.534.6.6 0 0 0 .533.66h.06a.593.593 0 0 0 .594-.534h.007zM42.6 82.2c.03 0 .06-.006.09-.006a.607.607 0 0 0 .505-.69.606.606 0 0 0-.684-.498.6.6 0 1 0 .09 1.194M42.6 44.196h.037a.604.604 0 0 0 .564-.637.594.594 0 0 0-.637-.557.597.597 0 0 0 .037 1.194M42.604 63.204c.018 0 .042-.006.06-.006a.6.6 0 1 0-.126-1.194.6.6 0 0 0-.534.66c.036.312.294.54.6.54M42.548 9.196c.018.006.036.006.054.006.306 0 .57-.234.594-.546a.6.6 0 1 0-.648.54M42.625 27a.593.593 0 0 0-.624.57c-.018.33.24.613.57.625.006 0 .017.006.024.006a.601.601 0 0 0 .03-1.2M42.588 24a.61.61 0 0 0-.588.618.607.607 0 0 0 .6.588h.018a.603.603 0 0 0-.03-1.206M42.174 6.023a.594.594 0 0 0 .426.174.59.59 0 0 0 .228-.042.73.73 0 0 0 .198-.132.63.63 0 0 0 .174-.426.597.597 0 0 0-.048-.228.6.6 0 0 0-.324-.324.606.606 0 0 0-.654.132.6.6 0 0 0-.126.192.613.613 0 0 0-.006.463c.03.07.078.137.132.19"/>
        </g>
        <g fill="#54C0D1">
            <path d="M48.027 94.166a.629.629 0 0 0-.853 0 .566.566 0 0 0-.126.198.598.598 0 0 0-.048.228c0 .079.018.157.048.228.03.073.072.138.126.199.06.053.126.095.198.125.072.03.15.048.228.048a.598.598 0 0 0 .229-.047.637.637 0 0 0 .198-.126.715.715 0 0 0 .126-.199.597.597 0 0 0 .047-.227.597.597 0 0 0-.047-.23.566.566 0 0 0-.126-.197M47.576 33.2h.024a.597.597 0 0 0 .6-.576.603.603 0 0 0-.576-.624.605.605 0 0 0-.624.576.602.602 0 0 0 .576.624M47.6 35.2h.018a.601.601 0 0 0-.035-1.2.6.6 0 0 0 .017 1.2M47.005 20.67a.597.597 0 0 0 .594.528c.024 0 .048 0 .072-.006a.6.6 0 0 0 .528-.666.6.6 0 0 0-.672-.521.592.592 0 0 0-.522.665M47.559 15.002a.608.608 0 0 0-.558.642.607.607 0 0 0 .6.558h.043a.599.599 0 0 0 .557-.642.6.6 0 0 0-.642-.558M47.554 56.002a.608.608 0 0 0-.552.648.601.601 0 0 0 .6.552h.048a.603.603 0 0 0-.096-1.2M47.554 52.202h.048c.312 0 .57-.24.6-.552a.608.608 0 0 0-.552-.648.608.608 0 0 0-.648.552.607.607 0 0 0 .552.648M47.6 76.2h.018a.603.603 0 0 0 .582-.624.606.606 0 0 0-.624-.576.601.601 0 0 0 .024 1.2M47.577 73.2h.023a.593.593 0 0 0 .594-.582.597.597 0 1 0-1.194-.036.597.597 0 0 0 .577.618M47.496 18.008a.598.598 0 0 0-.486.69c.048.294.3.504.588.504.036 0 .066-.006.102-.012a.602.602 0 0 0 .492-.69.603.603 0 0 0-.696-.492M47.704 59.19a.597.597 0 0 0 .486-.695.608.608 0 0 0-.696-.487.608.608 0 0 0-.486.696.604.604 0 0 0 .594.499c.03 0 .066-.006.102-.012M47.005 70.52c-.042.33.186.63.516.678.03 0 .054.007.078.007.3 0 .558-.222.6-.522a.61.61 0 0 0-.522-.678.604.604 0 0 0-.672.515M47.6 78.2c.024 0 .054 0 .084-.006a.6.6 0 0 0 .504-.678.598.598 0 0 0-1.182.169H47c.048.3.3.515.6.515M47.692 27.007a.599.599 0 0 0-.684.504.597.597 0 0 0 .504.683c.03.006.06.006.09.006a.604.604 0 0 0 .594-.51.605.605 0 0 0-.504-.683M48.194 68.698a.602.602 0 1 0-1.187-.198.603.603 0 0 0 .498.69c.03.006.065.012.096.012.287 0 .545-.21.593-.504M47.703 49.01a.597.597 0 0 0-.695.486.61.61 0 0 0 .485.696c.036.006.073.006.108.006a.602.602 0 0 0 .589-.492.592.592 0 0 0-.487-.696M47.69 29.006a.6.6 0 1 0-.174 1.188c.03.006.06.006.084.006a.6.6 0 0 0 .09-1.194M47.602 40.198c.03 0 .066 0 .096-.007a.598.598 0 1 0-.192-1.181.598.598 0 0 0-.498.69.605.605 0 0 0 .594.498M47.522 37.005a.596.596 0 0 0-.515.672H47c.042.3.3.522.6.522.024 0 .048 0 .072-.006a.598.598 0 1 0-.15-1.188M47.638 65.002a.598.598 0 1 0-.072 1.194h.035a.596.596 0 1 0 .037-1.194M47.6 54.2c.33 0 .6-.263.6-.594a.603.603 0 0 0-.6-.606c-.33 0-.6.27-.6.6 0 .33.27.6.6.6M47.437 90.18a.711.711 0 0 0 .162.018.59.59 0 0 0 .576-.437.6.6 0 0 0-1.152-.324.604.604 0 0 0 .414.743M47.637 92.2a.606.606 0 0 0 .564-.635.603.603 0 0 0-.636-.564.604.604 0 0 0-.564.636.604.604 0 0 0 .6.564h.036zM47.594 14.2h.006c.33 0 .6-.263.6-.593a.603.603 0 0 0-.594-.607c-.33 0-.6.264-.606.594 0 .337.263.606.594.606M47.63 84a.6.6 0 0 0-.63.57.598.598 0 0 0 .565.63h.036a.599.599 0 0 0 .6-.569h-.006a.597.597 0 0 0-.564-.63M47.612 44a.603.603 0 0 0-.612.594c0 .33.264.6.595.606h.005a.6.6 0 0 0 .012-1.2M47.743 87.017a.6.6 0 1 0-.288 1.165.6.6 0 0 0 .288-1.165M47.594 63c-.33 0-.6.276-.594.606.006.33.276.594.6.594h.011a.603.603 0 0 0 .59-.612.597.597 0 0 0-.607-.588M47.543 11.202h.054c.307 0 .57-.234.6-.54v-.006a.603.603 0 0 0-.54-.654.603.603 0 0 0-.114 1.2M47.6 83.2h.03a.602.602 0 0 0 .57-.63.607.607 0 0 0-.63-.57.602.602 0 0 0-.57.631c.018.324.283.57.6.57M47.496 9.192a.609.609 0 0 0 .108.012.602.602 0 0 0 .103-1.194.604.604 0 0 0-.697.486.598.598 0 0 0 .486.696M48.198 46.664a.602.602 0 0 0-.54-.66.59.59 0 0 0-.654.534.6.6 0 0 0 .533.66h.06a.593.593 0 0 0 .594-.534h.007zM47.6 80.2c.03 0 .06-.006.09-.006a.607.607 0 0 0 .505-.69.606.606 0 0 0-.684-.498.6.6 0 1 0 .09 1.194M47.6 42.196h.037a.604.604 0 0 0 .564-.637.594.594 0 0 0-.637-.557.597.597 0 0 0 .037 1.194M47.604 61.204c.018 0 .042-.006.06-.006a.6.6 0 1 0-.126-1.194.6.6 0 0 0-.534.66c.036.312.294.54.6.54M47.548 7.196c.018.006.036.006.054.006.306 0 .57-.234.594-.546a.6.6 0 1 0-.648.54M47.625 25a.593.593 0 0 0-.624.57c-.018.33.24.613.57.625.006 0 .017.006.024.006a.601.601 0 0 0 .03-1.2M47.588 22a.61.61 0 0 0-.588.618.607.607 0 0 0 .6.588h.018a.603.603 0 0 0-.03-1.206M47.174 4.023a.594.594 0 0 0 .426.174.59.59 0 0 0 .228-.042.73.73 0 0 0 .198-.132.63.63 0 0 0 .174-.426.597.597 0 0 0-.048-.228.6.6 0 0 0-.324-.324.606.606 0 0 0-.654.132.6.6 0 0 0-.126.192.613.613 0 0 0-.006.463c.03.07.078.137.132.19"/>
        </g>
        <g fill="#54C0D1">
            <path d="M53.027 98.166a.629.629 0 0 0-.853 0 .566.566 0 0 0-.126.198.598.598 0 0 0-.048.228c0 .079.018.157.048.228.03.073.072.138.126.199.06.053.126.095.198.125.072.03.15.048.228.048a.598.598 0 0 0 .229-.047.637.637 0 0 0 .198-.126.715.715 0 0 0 .126-.199.597.597 0 0 0 .047-.227.597.597 0 0 0-.047-.23.566.566 0 0 0-.126-.197M52.576 37.2h.024a.597.597 0 0 0 .6-.576.603.603 0 0 0-.576-.624.605.605 0 0 0-.624.576.602.602 0 0 0 .576.624M52.6 39.2h.018a.601.601 0 0 0-.035-1.2.6.6 0 0 0 .017 1.2M52.005 24.67a.597.597 0 0 0 .594.528c.024 0 .048 0 .072-.006a.6.6 0 0 0 .528-.666.6.6 0 0 0-.672-.521.592.592 0 0 0-.522.665M52.559 19.002a.608.608 0 0 0-.558.642.607.607 0 0 0 .6.558h.043a.599.599 0 0 0 .557-.642.6.6 0 0 0-.642-.558M52.554 60.002a.608.608 0 0 0-.552.648.601.601 0 0 0 .6.552h.048a.603.603 0 0 0-.096-1.2M52.554 56.202h.048c.312 0 .57-.24.6-.552a.608.608 0 0 0-.552-.648.608.608 0 0 0-.648.552.607.607 0 0 0 .552.648M52.6 80.2h.018a.603.603 0 0 0 .582-.624.606.606 0 0 0-.624-.576.601.601 0 0 0 .024 1.2M52.577 77.2h.023a.593.593 0 0 0 .594-.582.597.597 0 1 0-1.194-.036.597.597 0 0 0 .577.618M52.496 22.008a.598.598 0 0 0-.486.69c.048.294.3.504.588.504.036 0 .066-.006.102-.012a.602.602 0 0 0 .492-.69.603.603 0 0 0-.696-.492M52.704 63.19a.597.597 0 0 0 .486-.695.608.608 0 0 0-.696-.487.608.608 0 0 0-.486.696.604.604 0 0 0 .594.499c.03 0 .066-.006.102-.012M52.005 74.52c-.042.33.186.63.516.678.03 0 .054.007.078.007.3 0 .558-.222.6-.522a.61.61 0 0 0-.522-.678.604.604 0 0 0-.672.515M52.6 82.2c.024 0 .054 0 .084-.006a.6.6 0 0 0 .504-.678.598.598 0 0 0-1.182.169H52c.048.3.3.515.6.515M52.692 31.007a.599.599 0 0 0-.684.504.597.597 0 0 0 .504.683c.03.006.06.006.09.006a.604.604 0 0 0 .594-.51.605.605 0 0 0-.504-.683M53.194 72.698a.602.602 0 1 0-1.187-.198.603.603 0 0 0 .498.69c.03.006.065.012.096.012.287 0 .545-.21.593-.504M52.703 53.01a.597.597 0 0 0-.695.486.61.61 0 0 0 .485.696c.036.006.073.006.108.006a.602.602 0 0 0 .589-.492.592.592 0 0 0-.487-.696M52.69 33.006a.6.6 0 1 0-.174 1.188c.03.006.06.006.084.006a.6.6 0 0 0 .09-1.194M52.602 44.198c.03 0 .066 0 .096-.007a.598.598 0 1 0-.192-1.181.598.598 0 0 0-.498.69.605.605 0 0 0 .594.498M52.522 41.005a.596.596 0 0 0-.515.672H52c.042.3.3.522.6.522.024 0 .048 0 .072-.006a.598.598 0 1 0-.15-1.188M52.638 69.002a.598.598 0 1 0-.072 1.194h.035a.596.596 0 1 0 .037-1.194M52.6 58.2c.33 0 .6-.263.6-.594a.603.603 0 0 0-.6-.606c-.33 0-.6.27-.6.6 0 .33.27.6.6.6M52.437 94.18a.711.711 0 0 0 .162.018.59.59 0 0 0 .576-.437.6.6 0 0 0-1.152-.324.604.604 0 0 0 .414.743M52.637 96.2a.606.606 0 0 0 .564-.635.603.603 0 0 0-.636-.564.604.604 0 0 0-.564.636.604.604 0 0 0 .6.564h.036zM52.594 18.2h.006c.33 0 .6-.263.6-.593a.603.603 0 0 0-.594-.607c-.33 0-.6.264-.606.594 0 .337.263.606.594.606M52.63 88a.6.6 0 0 0-.63.57.598.598 0 0 0 .565.63h.036a.599.599 0 0 0 .6-.569h-.006a.597.597 0 0 0-.564-.63M52.612 48a.603.603 0 0 0-.612.594c0 .33.264.6.595.606h.005a.6.6 0 0 0 .012-1.2M52.743 91.017a.6.6 0 1 0-.288 1.165.6.6 0 0 0 .288-1.165M52.594 67c-.33 0-.6.276-.594.606.006.33.276.594.6.594h.011a.603.603 0 0 0 .59-.612.597.597 0 0 0-.607-.588M52.543 15.202h.054c.307 0 .57-.234.6-.54v-.006a.603.603 0 0 0-.54-.654.603.603 0 0 0-.114 1.2M52.6 87.2h.03a.602.602 0 0 0 .57-.63.607.607 0 0 0-.63-.57.602.602 0 0 0-.57.631c.018.324.283.57.6.57M52.496 13.192a.609.609 0 0 0 .108.012.602.602 0 0 0 .103-1.194.604.604 0 0 0-.697.486.598.598 0 0 0 .486.696M53.198 50.664a.602.602 0 0 0-.54-.66.59.59 0 0 0-.654.534.6.6 0 0 0 .533.66h.06a.593.593 0 0 0 .594-.534h.007zM52.6 84.2c.03 0 .06-.006.09-.006a.607.607 0 0 0 .505-.69.606.606 0 0 0-.684-.498.6.6 0 1 0 .09 1.194M52.6 46.196h.037a.604.604 0 0 0 .564-.637.594.594 0 0 0-.637-.557.597.597 0 0 0 .037 1.194M52.604 65.204c.018 0 .042-.006.06-.006a.6.6 0 1 0-.126-1.194.6.6 0 0 0-.534.66c.036.312.294.54.6.54M52.548 11.196c.018.006.036.006.054.006.306 0 .57-.234.594-.546a.6.6 0 1 0-.648.54M52.625 29a.593.593 0 0 0-.624.57c-.018.33.24.613.57.625.006 0 .017.006.024.006a.601.601 0 0 0 .03-1.2M52.588 26a.61.61 0 0 0-.588.618.607.607 0 0 0 .6.588h.018a.603.603 0 0 0-.03-1.206M52.174 8.023a.594.594 0 0 0 .426.174.59.59 0 0 0 .228-.042.73.73 0 0 0 .198-.132.63.63 0 0 0 .174-.426.597.597 0 0 0-.048-.228.6.6 0 0 0-.324-.324.606.606 0 0 0-.654.132.6.6 0 0 0-.126.192.613.613 0 0 0-.006.463c.03.07.078.137.132.19"/>
        </g>
        <path fill="#54C0D1" d="M77.087 65.676c-1.766-3.896-2.407-6.596-2.423-6.669V59l-.002.007c-.017.073-.658 2.773-2.424 6.669C71.712 66.835 69 70 69 72.567a5.598 5.598 0 0 0 1.167 3.423 5.613 5.613 0 0 0 8.52.476c.385-.303.663-.688.86-1.161a5.603 5.603 0 0 0 .711-2.738c0-2.567-2.615-5.664-3.17-6.891z"/>
        <g fill="#4DC8D1" fill-rule="nonzero" transform="translate(78 93)">
            <rect width="28" height="9" x="-.5" y="-.5" stroke="#F9F9F9" rx="2"/>
            <path d="M0 4h27v2a2 2 0 0 1-2 2H2a2 2 0 0 1-2-2V4z" style="mix-blend-mode:multiply"/>
        </g>
    </g>
</svg>
