<svg xmlns="http://www.w3.org/2000/svg" xmlns:xlink="http://www.w3.org/1999/xlink" width="172" height="128" viewBox="0 0 172 128">
    <defs>
        <path id="a" d="M112 56c0 30.928-25.072 56-56 56S0 86.928 0 56 25.072 0 56 0s56 25.072 56 56"/>
        <path id="c" d="M0 0h49l-4 60H4z"/>
        <path id="e" d="M13 10c4.657 0 9.395-3.92 10.638-7.92-.505-.005-1.089-.01-1.746-.013A3772.128 3772.128 0 0 0 2.27 2.024C3.32 6.514 7.829 10 13 10zM23.952.12c0 1.77-2.882 1.758-.292 1.888.19-.633.292-1.267.292-1.888zM13 12C6.17 12 .04 6.726.04.037c0-.037 25.912 0 25.912.083C25.952 5.528 19.802 12 13 12z"/>
    </defs>
    <g fill="none" fill-rule="evenodd">
        <path fill="#F9F9F9" d="M86 126c-30.928 0-56-25.072-56-56s25.072-56 56-56 56 25.072 56 56-25.072 56-56 56z"/>
        <circle cx="95" cy="67" r="7" fill="#81EBF7" fill-rule="nonzero" stroke="#F9F9F9" stroke-width="2"/>
        <circle cx="102.5" cy="70.5" r="5.5" fill="#81EBF7" fill-rule="nonzero" stroke="#F9F9F9" stroke-width="2"/>
        <circle cx="87" cy="71" r="7" fill="#81EBF7" fill-rule="nonzero" stroke="#F9F9F9" stroke-width="2"/>
        <circle cx="79" cy="59" r="4" fill="#81EBF7" fill-rule="nonzero" stroke="#F9F9F9" stroke-width="2"/>
        <circle cx="107" cy="60" r="4" fill="#81EBF7" fill-rule="nonzero" stroke="#F9F9F9" stroke-width="2"/>
        <circle cx="73" cy="72" r="4" fill="#81EBF7" fill-rule="nonzero" stroke="#F9F9F9" stroke-width="2"/>
        <circle cx="79" cy="71.397" r="4" fill="#81EBF7" fill-rule="nonzero" stroke="#F9F9F9" stroke-width="2"/>
        <circle cx="71" cy="66" r="2" fill="#81EBF7" fill-rule="nonzero" stroke="#F9F9F9" stroke-width="2"/>
        <circle cx="89" cy="52" r="2" fill="#81EBF7" fill-rule="nonzero" stroke="#F9F9F9" stroke-width="2"/>
        <circle cx="76" cy="48" r="2" fill="#81EBF7" fill-rule="nonzero" stroke="#F9F9F9" stroke-width="2"/>
        <circle cx="92" cy="40" r="2" fill="#81EBF7" fill-rule="nonzero" stroke="#F9F9F9" stroke-width="2"/>
        <g transform="translate(30 14)">
            <mask id="b" fill="#fff">
                <use xlink:href="#a"/>
            </mask>
            <path stroke="#4DC8D1" stroke-dasharray="0,2" stroke-linecap="round" stroke-linejoin="round" d="M54.897 64.5c4.74 0 4.74 2 9.48 2s4.74-2 9.478-2c4.74 0 4.74 2 9.478 2 4.738 0 4.738-2 9.477-2 4.74 0 4.74 2 9.48 2 4.741 0 4.741-2 9.483-2 4.74 0 4.74 2 9.48 2 4.743 0 4.743-2 9.486-2 4.744 0 4.744 2 9.487 2" mask="url(#b)" transform="rotate(-30 97.562 65.5)"/>
            <path stroke="#4DC8D1" stroke-dasharray="0,2" stroke-linecap="round" stroke-linejoin="round" d="M57.897 69.5c4.74 0 4.74 2 9.48 2s4.74-2 9.478-2c4.74 0 4.74 2 9.478 2 4.738 0 4.738-2 9.477-2 4.74 0 4.74 2 9.48 2 4.741 0 4.741-2 9.483-2 4.74 0 4.74 2 9.48 2 4.743 0 4.743-2 9.486-2 4.744 0 4.744 2 9.487 2" mask="url(#b)" transform="rotate(-30 100.562 70.5)"/>
            <path stroke="#4DC8D1" stroke-dasharray="0,2" stroke-linecap="round" stroke-linejoin="round" d="M59.897 75.5c4.74 0 4.74 2 9.48 2s4.74-2 9.478-2c4.74 0 4.74 2 9.478 2 4.738 0 4.738-2 9.477-2 4.74 0 4.74 2 9.48 2 4.741 0 4.741-2 9.483-2 4.74 0 4.74 2 9.48 2 4.743 0 4.743-2 9.486-2 4.744 0 4.744 2 9.487 2" mask="url(#b)" transform="rotate(-30 102.562 76.5)"/>
            <path fill="#D8D8D8" fill-rule="nonzero" stroke="#979797" stroke-width="2" d="M33.069 58l3.867 58h39.128l3.867-58H33.07z" mask="url(#b)"/>
            <g mask="url(#b)">
                <g transform="translate(32 57)">
                    <mask id="d" fill="#fff">
                        <use xlink:href="#c"/>
                    </mask>
                    <path stroke="#A39D9D" stroke-width="2" d="M1.069 1l3.867 58h39.128l3.867-58H1.07z"/>
                    <path fill="#B3ADAD" fill-rule="nonzero" d="M25-1h26v60H25z" mask="url(#d)"/>
                </g>
            </g>
        </g>
        <path fill-rule="nonzero" stroke="#A39D9D" stroke-width="2" d="M98.883 72.092h-.056a485.95 485.95 0 0 0-2.93-.025 3773.138 3773.138 0 0 0-17.808-.044 992.907 992.907 0 0 0-2.998.004C75.658 77.559 80.915 82 87 82c5.59 0 11.2-5.052 11.883-9.908z"/>
        <g transform="translate(74 71)">
            <mask id="f" fill="#fff">
                <use xlink:href="#e"/>
            </mask>
            <use fill="#A39D9D" fill-rule="nonzero" xlink:href="#e"/>
            <path fill="#D8D8D8" fill-rule="nonzero" d="M13 0h14v14H13z" mask="url(#f)"/>
        </g>
        <path fill-rule="nonzero" stroke="#A39D9D" stroke-linecap="round" stroke-width="2" d="M61.667 72h25.33"/>
        <path fill-rule="nonzero" stroke="#D9D7D7" stroke-linecap="round" stroke-width="2" d="M86.997 72H111"/>
        <path fill="#D8D8D8" fill-rule="nonzero" stroke="#A39D9D" d="M86.5 71.5h1v1h-1z"/>
        <path stroke="#4DC8D1" stroke-dasharray="0,2" stroke-linecap="round" stroke-linejoin="round" d="M10 63.665c4.104-2.37 5.104-.638 9.21-3.008 4.104-2.37 3.104-4.102 7.208-6.471 4.104-2.37 5.104-.638 9.208-3.007 4.104-2.37 3.104-4.101 7.208-6.471 4.105-2.37 5.105-.638 9.21-3.008s3.105-4.102 7.212-6.473c4.105-2.37 5.105-.638 9.21-3.008 4.108-2.372 3.108-4.104 7.215-6.475 4.109-2.372 5.109-.64 9.216-3.012M13 68.665c4.104-2.37 5.104-.638 9.21-3.008 4.104-2.37 3.104-4.102 7.208-6.471 4.104-2.37 5.104-.638 9.208-3.007 4.104-2.37 3.104-4.101 7.208-6.471 4.105-2.37 5.105-.638 9.21-3.008s3.105-4.102 7.212-6.473c4.105-2.37 5.105-.638 9.21-3.008 4.108-2.372 3.108-4.104 7.215-6.475 4.109-2.372 5.109-.64 9.216-3.012M15 74.665c4.104-2.37 5.104-.638 9.21-3.008 4.104-2.37 3.104-4.102 7.208-6.471 4.104-2.37 5.104-.638 9.208-3.007 4.104-2.37 3.104-4.101 7.208-6.471 4.105-2.37 5.105-.638 9.21-3.008s3.105-4.102 7.212-6.473c4.105-2.37 5.105-.638 9.21-3.008 4.108-2.372 3.108-4.104 7.215-6.475 4.109-2.372 5.109-.64 9.216-3.012"/>
    </g>
</svg>
