<svg xmlns="http://www.w3.org/2000/svg" xmlns:xlink="http://www.w3.org/1999/xlink" width="172" height="128" viewBox="0 0 172 128">
    <defs>
        <path id="a" d="M2 .405h28.677a2 2 0 0 1 2 2v2.92a2 2 0 0 1-.847 1.635c-5.164 3.642-10.327 5.463-15.491 5.463S6.01 10.602.847 6.96A2 2 0 0 1 0 5.326v-2.92a2 2 0 0 1 2-2z"/>
        <path id="c" d="M0 0h4.456v59.414H0z"/>
        <path id="d" d="M2.971 0h10.748v59.414H2.971z"/>
        <path id="e" d="M2 .405h28.677a2 2 0 0 1 2 2v2.92a2 2 0 0 1-.847 1.635c-5.164 3.642-10.327 5.463-15.491 5.463S6.01 10.602.847 6.96A2 2 0 0 1 0 5.326v-2.92a2 2 0 0 1 2-2z"/>
        <path id="g" d="M0 0h4.456v59.414H0z"/>
        <path id="h" d="M2.971 0h10.748v59.414H2.971z"/>
        <path id="i" d="M2 .405h28.677a2 2 0 0 1 2 2v2.92a2 2 0 0 1-.847 1.635c-5.164 3.642-10.327 5.463-15.491 5.463S6.01 10.602.847 6.96A2 2 0 0 1 0 5.326v-2.92a2 2 0 0 1 2-2z"/>
        <path id="k" d="M0 0h4.456v59.414H0z"/>
        <path id="l" d="M2.971 0h10.748v59.414H2.971z"/>
        <path id="m" d="M2 .405h28.677a2 2 0 0 1 2 2v2.92a2 2 0 0 1-.847 1.635c-5.164 3.642-10.327 5.463-15.491 5.463S6.01 10.602.847 6.96A2 2 0 0 1 0 5.326v-2.92a2 2 0 0 1 2-2z"/>
        <path id="o" d="M0 0h4.456v59.414H0z"/>
        <path id="p" d="M2.971 0h10.748v59.414H2.971z"/>
        <path id="q" d="M112 56c0 30.928-25.072 56-56 56S0 86.928 0 56 25.072 0 56 0s56 25.072 56 56"/>
    </defs>
    <g fill="none" fill-rule="evenodd">
        <path fill="#F9F9F9" d="M142 70c0 30.928-25.072 56-56 56s-56-25.072-56-56 25.072-56 56-56 56 25.072 56 56"/>
        <g transform="rotate(-30 121.713 -41.57)">
            <circle cx="34.727" cy="37.289" r="21.519" fill="#CCC8C8" fill-rule="nonzero"/>
            <g transform="rotate(90 20.04 22.165)">
                <mask id="b" fill="#fff">
                    <use xlink:href="#a"/>
                </mask>
                <g mask="url(#b)">
                    <g fill-rule="nonzero" transform="rotate(-90 1.013 11.41)">
                        <use fill="#A39D9D" xlink:href="#c"/>
                        <use fill="#D9D7D7" xlink:href="#d"/>
                    </g>
                </g>
            </g>
            <g transform="rotate(90 3.906 39.299)">
                <mask id="f" fill="#fff">
                    <use xlink:href="#e"/>
                </mask>
                <g mask="url(#f)">
                    <g fill-rule="nonzero" transform="rotate(-90 1.013 11.41)">
                        <use fill="#A39D9D" xlink:href="#g"/>
                        <use fill="#D9D7D7" xlink:href="#h"/>
                    </g>
                </g>
            </g>
            <g transform="translate(1.831 27.994)">
                <mask id="j" fill="#fff">
                    <use xlink:href="#i"/>
                </mask>
                <g mask="url(#j)">
                    <g fill-rule="nonzero" transform="rotate(-90 1.013 11.41)">
                        <use fill="#A39D9D" xlink:href="#k"/>
                        <use fill="#D9D7D7" xlink:href="#l"/>
                    </g>
                </g>
            </g>
            <g transform="translate(36.831 27.994)">
                <mask id="n" fill="#fff">
                    <use xlink:href="#m"/>
                </mask>
                <g mask="url(#n)">
                    <g fill-rule="nonzero" transform="rotate(-90 1.013 11.41)">
                        <use fill="#A39D9D" xlink:href="#o"/>
                        <use fill="#D9D7D7" xlink:href="#p"/>
                    </g>
                </g>
            </g>
            <circle cx="34.317" cy="37.379" r="7.5" fill="#F9F9F9" fill-rule="nonzero" stroke="#4DC8D1" transform="rotate(30 34.317 37.38)"/>
        </g>
        <g transform="translate(30 14)">
            <mask id="r" fill="#fff">
                <use xlink:href="#q"/>
            </mask>
            <path stroke="#56A0B7" stroke-dasharray="0,4" stroke-linecap="round" stroke-linejoin="round" d="M-9 29.463s20.978 13.42 34.397 0c14.542-14.542 31.683 0 31.683 0" mask="url(#r)"/>
            <path stroke="#56A0B7" stroke-dasharray="0,4" stroke-linecap="round" stroke-linejoin="round" d="M-11 23.463s20.978 13.42 34.397 0c14.542-14.542 31.683 0 31.683 0" mask="url(#r)"/>
            <path stroke="#56A0B7" stroke-dasharray="0,4" stroke-linecap="round" stroke-linejoin="round" d="M-13 17.463s20.978 13.42 34.397 0c14.542-14.542 31.683 0 31.683 0" mask="url(#r)"/>
        </g>
        <path stroke="#56A0B7" stroke-dasharray="0,4" stroke-linecap="round" stroke-linejoin="round" d="M90 111.463s20.978 13.42 34.397 0c14.542-14.542 31.683 0 31.683 0"/>
        <path stroke="#56A0B7" stroke-dasharray="0,4" stroke-linecap="round" stroke-linejoin="round" d="M88 105.463s20.978 13.42 34.397 0c14.542-14.542 31.683 0 31.683 0"/>
        <path stroke="#56A0B7" stroke-dasharray="0,4" stroke-linecap="round" stroke-linejoin="round" d="M86 99.463s20.978 13.42 34.397 0c14.542-14.542 31.683 0 31.683 0"/>
    </g>
</svg>
