<svg xmlns="http://www.w3.org/2000/svg" xmlns:xlink="http://www.w3.org/1999/xlink" width="172" height="128" viewBox="0 0 172 128">
    <defs>
        <path id="a" d="M10.55 0h44.398v9H65c-1.407 19.493-4.187 32.25-8.34 38.273-3.983 5.774-11.953 11.876-23.911 18.307C20.79 59.15 12.82 53.047 8.839 47.273 4.685 41.25 1.739 28.493 0 9h10.34l.21-9z"/>
        <path id="c" d="M0 7a7 7 0 1 1 11 5.745L13 26H1l2-13.255A6.992 6.992 0 0 1 0 7z"/>
    </defs>
    <g fill="none" fill-rule="evenodd">
        <path fill="#F9F9F9" d="M142 70c0 30.928-25.072 56-56 56s-56-25.072-56-56 25.072-56 56-56 56 25.072 56 56"/>
        <path fill="#54C0D1" fill-rule="nonzero" d="M63.55 41h44.398v9H118c-1.407 19.493-4.187 32.25-8.34 38.273-3.983 5.774-11.953 11.876-23.911 18.307-11.958-6.43-19.929-12.533-23.91-18.307C57.685 82.25 54.739 69.493 53 50h10.34l.21-9z"/>
        <g transform="translate(53 42)">
            <mask id="b" fill="#fff">
                <use xlink:href="#a"/>
            </mask>
            <use fill="#B3ADAD" fill-rule="nonzero" xlink:href="#a"/>
            <path fill="#D9D7D7" fill-rule="nonzero" d="M-3-6h36v78H-3z" mask="url(#b)"/>
            <path fill="#43465B" fill-rule="nonzero" d="M26 27a7 7 0 1 1 11 5.745L39 46H27l2-13.255A6.992 6.992 0 0 1 26 27z" mask="url(#b)"/>
            <g mask="url(#b)">
                <g transform="translate(26 20)">
                    <mask id="d" fill="#fff">
                        <use xlink:href="#c"/>
                    </mask>
                    <use fill="#B3ADAD" fill-rule="nonzero" xlink:href="#c"/>
                    <path fill="#D9D7D7" fill-rule="nonzero" d="M7-4h22v34H7z" mask="url(#d)"/>
                </g>
            </g>
        </g>
        <path fill-rule="nonzero" stroke="#43465B" stroke-linecap="round" d="M41.5 114.5V76M128 60V24.5M46.5 119V76M133 60V30.5M36.5 109.58V76M123 60V17"/>
    </g>
</svg>
