<svg xmlns="http://www.w3.org/2000/svg" width="172" height="128" viewBox="0 0 172 128">
    <g fill="none" fill-rule="evenodd">
        <path fill="#F9F9F9" d="M142 70c0 30.928-25.072 56-56 56s-56-25.072-56-56 25.072-56 56-56 56 25.072 56 56"/>
        <g stroke="#B3ADAD" stroke-dasharray="1,2" stroke-linecap="round">
            <path d="M114.577 66.672l4.14 4.207v49.695H54V70.879L86.358 38l14.85 15.088V38h13.369v28.672z"/>
            <path fill="#E6E6E6" d="M75.667 117.592H97.05V86.043H75.667v31.549z"/>
            <path stroke-linejoin="round" d="M57.768 117.922h3.485V86.043h-3.485v31.879zM66.246 117.922h3.486V86.043h-3.486v31.879zM102.043 117.922h3.486V86.043h-3.486v31.879zM110.522 117.922h3.485V86.043h-3.485v31.879zM56.826 79.45v3.484h59.81V79.45h-59.81z"/>
            <path fill="#81EBF7" d="M94.236 63.385a7.878 7.878 0 1 1-15.757 0 7.878 7.878 0 0 1 7.879-7.88 7.878 7.878 0 0 1 7.878 7.88"/>
        </g>
        <path stroke="#56A0B7" stroke-dasharray="1,2" stroke-linecap="square" d="M23 30l6.482 3.89 6.48-3.89 6.482 3.89L48.926 30l6.48 3.89 6.48-3.89 6.484 3.89L74.85 30l6.486 3.89L87.823 30"/>
        <g stroke="#56A0B7" stroke-dasharray="1,2" stroke-linecap="square">
            <path d="M128.5 80.5l-3.89 6.482 3.89 6.48-3.89 6.482 3.89 6.482-3.89 6.48 3.89 6.48M133.5 80.5l-3.89 6.482 3.89 6.48-3.89 6.482 3.89 6.482-3.89 6.48 3.89 6.48M138.5 80.5l-3.89 6.482 3.89 6.48-3.89 6.482 3.89 6.482-3.89 6.48 3.89 6.48"/>
        </g>
        <path stroke="#56A0B7" stroke-dasharray="1,2" stroke-linecap="square" d="M23 25l6.482 3.89 6.48-3.89 6.482 3.89L48.926 25l6.48 3.89 6.48-3.89 6.484 3.89L74.85 25l6.486 3.89L87.823 25M23 20l6.482 3.89 6.48-3.89 6.482 3.89L48.926 20l6.48 3.89 6.48-3.89 6.484 3.89L74.85 20l6.486 3.89L87.823 20"/>
    </g>
</svg>
