<svg xmlns="http://www.w3.org/2000/svg" viewBox="0 0 1548.58 243.74"><defs><style>.cls-1{fill:#fff;}</style></defs><title>Asset 4</title><g id="Layer_2" data-name="Layer 2"><g id="Layer_1-2" data-name="Layer 1"><path class="cls-1" d="M1489.7,137.55h-34.5a3,3,0,0,0-3,2.95v3c-7.6-5.95-16.72-9-27.18-9a49.66,49.66,0,0,0-37.25,16.13A54,54,0,0,0,1377.18,168a58,58,0,0,0-3.8,20.87,59.45,59.45,0,0,0,3.9,21.74A53.64,53.64,0,0,0,1388.21,228a50.27,50.27,0,0,0,16.52,11.57,51.54,51.54,0,0,0,20.71,4.13c10.62,0,19.6-3.16,26.8-9.41v3.42a3,3,0,0,0,3,3h34.5a3,3,0,0,0,3-3V140.5A3,3,0,0,0,1489.7,137.55Zm-73.31,44a20.55,20.55,0,0,1,4.06-6,18,18,0,0,1,6-4.07,19.76,19.76,0,0,1,7.68-1.48,19.27,19.27,0,0,1,7.48,1.48,18,18,0,0,1,6,4.07,21.55,21.55,0,0,1,4.16,6.24,18.09,18.09,0,0,1,1.55,7.43,17.66,17.66,0,0,1-1.54,7.32,21.71,21.71,0,0,1-4.17,6.17,17.93,17.93,0,0,1-6,4.07,20.28,20.28,0,0,1-15.16,0,18,18,0,0,1-6-4.07,19.9,19.9,0,0,1-4-6.2,19.67,19.67,0,0,1-1.48-7.67A17.64,17.64,0,0,1,1416.39,181.6Z"/><rect class="cls-1" x="1506.26" y="137.55" width="40.23" height="103.17" rx="2.96"/><path class="cls-1" d="M1546.82,94.5a22.85,22.85,0,0,0-4.8-7.09,22.58,22.58,0,0,0-7.07-4.78,22.31,22.31,0,0,0-17.33,0,22.56,22.56,0,0,0-11.87,11.87,22.19,22.19,0,0,0,0,17.32,22.77,22.77,0,0,0,4.79,7.08,22.49,22.49,0,0,0,7.08,4.79,22.21,22.21,0,0,0,17.33,0,22.56,22.56,0,0,0,11.87-11.87,22.19,22.19,0,0,0,0-17.32Z"/><path class="cls-1" d="M1322.16,0h-57.68a8.87,8.87,0,0,0-8.87,8.87V125.8c0,6.24-.24,12.74-.72,19.32a43.9,43.9,0,0,1-3.78,15.39,23,23,0,0,1-8.54,9.8c-2,1.35-6.47,3.6-13.44,3.6h-36.89a24.77,24.77,0,0,1-13.75-3.65,21.89,21.89,0,0,1-8.41-9.63,46.29,46.29,0,0,1-3.69-15.52c-.47-6.49-.71-13-.71-19.31V8.87A8.88,8.88,0,0,0,1156.8,0H1016.91a8.87,8.87,0,0,0-7,3.47L955.08,74.76V8.87A8.87,8.87,0,0,0,946.21,0H887.82a8.88,8.88,0,0,0-8.88,8.87V74.76L824.16,3.47a8.87,8.87,0,0,0-7-3.47H745.54a8.88,8.88,0,0,0-6.81,14.57l83.72,99.95L747.4,205.63,701,145.17c11.89-4.67,21.44-11.6,28.48-20.67,9.38-12.1,14.14-27.8,14.14-46.7a85.48,85.48,0,0,0-5.14-29.7,70.09,70.09,0,0,0-41.6-42c-10.27-4-22.31-6.1-35.79-6.1H533a8.87,8.87,0,0,0-8.87,8.87V204.66L448.43,5.72A8.88,8.88,0,0,0,440.14,0h-63.3a8.89,8.89,0,0,0-8.3,5.72l-75.75,199L259.29,7.39A8.88,8.88,0,0,0,250.54,0H193.16a8.88,8.88,0,0,0-8.32,5.77l-36.08,96.71L112.43,5.75A8.87,8.87,0,0,0,104.12,0H46.74A8.87,8.87,0,0,0,38,7.39L.13,230.42a8.88,8.88,0,0,0,8.74,10.36H66.55a8.88,8.88,0,0,0,8.78-7.56l14.29-95.38,37.88,97.29a8.89,8.89,0,0,0,8.27,5.65h23.07a8.88,8.88,0,0,0,8.21-5.5l40.44-98.59L222,233.22a8.87,8.87,0,0,0,8.77,7.56H288.4a8.93,8.93,0,0,0,1.87-.2,9.29,9.29,0,0,0,1.67.2h61.82a8.89,8.89,0,0,0,8.4-6L373.4,202h70.16l11.25,32.76a8.89,8.89,0,0,0,8.4,6H525a8.85,8.85,0,0,0,4-1,8.73,8.73,0,0,0,4,1h58a8.87,8.87,0,0,0,8.87-8.87V161.64h28.45l48.41,75.07a8.86,8.86,0,0,0,7.46,4.07H812.39a8.91,8.91,0,0,0,7-3.41L878.94,161v70.92a8.88,8.88,0,0,0,8.88,8.87h58.39a8.87,8.87,0,0,0,8.87-8.87V161l59.56,76.38a8.89,8.89,0,0,0,7,3.41h75.13a8.87,8.87,0,0,0,6.85-14.52l-92-111.74L1090,20.94V133.79c0,37,8.93,64.67,26.55,82.29s44.1,26.46,79,26.56h29.59c35.23,0,62-8.95,79.51-26.58S1331,170.75,1331,133.79V8.87A8.88,8.88,0,0,0,1322.16,0ZM395,140.21l13.51-38.55L422,140.21ZM660.72,94.44c-4.49,3.49-11.52,5.25-20.89,5.25h-40V62.42h40c9.37,0,16.4,1.76,20.89,5.23,2.46,1.91,5.73,5.38,5.73,13.4S663.18,92.54,660.72,94.44Z"/><path class="cls-1" d="M1367.3,212.79h0a22.56,22.56,0,0,0-11.87-11.87,22.34,22.34,0,0,0-17.34,0,22.8,22.8,0,0,0-7.08,4.8,23.06,23.06,0,0,0-4.79,7.08,22.3,22.3,0,0,0,0,17.32,23.15,23.15,0,0,0,4.8,7.08,22.67,22.67,0,0,0,7.07,4.79,22.23,22.23,0,0,0,17.34,0,22.63,22.63,0,0,0,11.87-11.88,22.16,22.16,0,0,0,0-17.31Z"/></g></g></svg>