<svg xmlns="http://www.w3.org/2000/svg" xmlns:xlink="http://www.w3.org/1999/xlink" width="100" height="18" viewBox="0 0 100 18">
    <defs>
        <path id="a" d="M.064.008h2.878v2.878H.064z"/>
        <path id="c" d="M0 .017h85.929V15.68H0z"/>
    </defs>
    <g fill="none" fill-rule="evenodd">
        <path fill="#FFF" d="M91.439 12.788c.064-.145.152-.277.262-.39.108-.112.239-.2.39-.263.15-.063.317-.095.495-.095.17 0 .332.032.483.095.15.063.282.151.39.263.11.113.2.249.268.403.067.152.1.309.1.48 0 .167-.034.326-.1.472-.068.15-.158.285-.269.398-.107.111-.238.2-.39.263-.309.13-.683.123-.977 0a1.167 1.167 0 0 1-.39-.263 1.284 1.284 0 0 1-.356-.895c0-.171.03-.324.094-.468m4.733-2.844h-2.228a.19.19 0 0 0-.19.191v.191c-.492-.383-1.08-.578-1.756-.578-.49 0-.945.095-1.352.28a3.26 3.26 0 0 0-1.052.761 3.494 3.494 0 0 0-.686 1.12 3.742 3.742 0 0 0-.246 1.347c0 .503.085.975.252 1.403.168.43.405.81.706 1.127a3.237 3.237 0 0 0 2.403 1.014c.686 0 1.266-.204 1.73-.608v.221a.19.19 0 0 0 .191.191h2.228a.19.19 0 0 0 .19-.19v-6.279a.19.19 0 0 0-.19-.19M99.647 9.944h-2.215a.19.19 0 0 0-.191.191v6.278a.19.19 0 0 0 .19.191h2.216a.19.19 0 0 0 .191-.19v-6.279a.19.19 0 0 0-.191-.19"/>
        <g transform="translate(97.03 6.277)">
            <mask id="b" fill="#fff">
                <use xlink:href="#a"/>
            </mask>
            <path fill="#FFF" d="M2.829.888A1.469 1.469 0 0 0 2.062.12 1.44 1.44 0 0 0 .064 1.447c0 .197.038.386.113.56a1.461 1.461 0 0 0 .767.766c.173.075.362.113.56.113.197 0 .385-.038.558-.113a1.47 1.47 0 0 0 .767-.767c.075-.173.113-.362.113-.559 0-.197-.038-.385-.113-.56" mask="url(#b)"/>
        </g>
        <g transform="translate(0 1.048)">
            <mask id="d" fill="#fff">
                <use xlink:href="#c"/>
            </mask>
            <path fill="#FFF" d="M42.655 6.113c-.29.225-.744.34-1.35.34h-2.578V4.045h2.579c.605 0 1.059.114 1.348.338.16.123.37.347.37.865s-.21.742-.37.864zM25.499 9.068l.872-2.488.873 2.488h-1.745zM85.356.017h-3.724a.573.573 0 0 0-.573.572v7.549c0 .402-.015.822-.046 1.247a2.838 2.838 0 0 1-.244.994c-.121.26-.301.467-.551.632-.131.087-.418.233-.868.233h-2.382c-.348 0-.647-.079-.887-.236a1.415 1.415 0 0 1-.543-.622 2.974 2.974 0 0 1-.238-1.001c-.03-.42-.046-.84-.046-1.247V.589a.573.573 0 0 0-.573-.572h-9.032a.573.573 0 0 0-.454.223l-3.537 4.603V.589a.573.573 0 0 0-.573-.572h-3.769a.573.573 0 0 0-.573.572v4.254L53.206.24a.574.574 0 0 0-.454-.223H48.13a.573.573 0 0 0-.439.94l5.404 6.453-4.844 5.881-2.994-3.902c.768-.302 1.385-.75 1.84-1.335.605-.781.912-1.795.912-3.015a5.52 5.52 0 0 0-.332-1.917 4.666 4.666 0 0 0-1.001-1.61C46.232 1.046 45.665.675 44.99.41c-.663-.261-1.44-.393-2.31-.393h-8.27a.573.573 0 0 0-.572.572v12.64L28.95.386a.573.573 0 0 0-.536-.37h-4.086a.574.574 0 0 0-.536.37l-4.89 12.847L16.739.493a.573.573 0 0 0-.565-.476H12.47a.573.573 0 0 0-.537.372l-2.33 6.243L7.259.388a.573.573 0 0 0-.536-.371H3.017a.573.573 0 0 0-.564.477L.008 14.892a.572.572 0 0 0 .565.669h3.724a.573.573 0 0 0 .566-.488l.922-6.158 2.446 6.28c.086.22.298.366.534.366h1.49c.232 0 .441-.14.53-.356l2.61-6.364.933 6.232c.042.28.283.488.567.488h3.724c.04 0 .08-.005.12-.013a.563.563 0 0 0 .108.013h3.991a.573.573 0 0 0 .542-.387l.726-2.115h4.53l.726 2.115c.08.231.297.387.542.387h3.99c.093 0 .181-.023.26-.063a.568.568 0 0 0 .257.063h3.743a.573.573 0 0 0 .573-.573v-4.536h1.837l3.125 4.846a.573.573 0 0 0 .481.263h8.276a.573.573 0 0 0 .452-.22l3.845-4.931v4.578c0 .316.256.573.573.573h3.769a.573.573 0 0 0 .573-.573V10.41l3.845 4.93c.109.14.275.22.452.22h4.85a.573.573 0 0 0 .443-.936L65.305 7.41l5.06-6.041v7.284c0 2.388.577 4.175 1.715 5.313 1.13 1.131 2.847 1.708 5.102 1.715h1.91c2.275 0 4.002-.578 5.133-1.716 1.13-1.138 1.704-2.925 1.704-5.312V.59a.573.573 0 0 0-.573-.572z" mask="url(#d)"/>
        </g>
        <path fill="#FFF" d="M88.27 14.802V14.8a1.48 1.48 0 0 0-.31-.457 1.442 1.442 0 0 0-2.033 0c-.13.131-.234.285-.309.458a1.404 1.404 0 0 0-.113.558c0 .197.038.385.113.56a1.478 1.478 0 0 0 .766.766c.175.075.363.114.56.114a1.4 1.4 0 0 0 .56-.114 1.48 1.48 0 0 0 .457-.31c.13-.13.234-.284.309-.456.075-.175.113-.363.113-.56 0-.195-.038-.383-.113-.558"/>
    </g>
</svg>
